<svg width="240" height="200" viewBox="0 0 240 200" fill="none" xmlns="http://www.w3.org/2000/svg">
<rect width="240" height="200" fill="white"/>
<path opacity="0.2" d="M187.36 24.6875H107.89C103.118 24.6875 99.25 28.5558 99.25 33.3275V79.7975C99.25 84.5692 103.118 88.4375 107.89 88.4375H187.36C192.132 88.4375 196 84.5692 196 79.7975V33.3275C196 28.5558 192.132 24.6875 187.36 24.6875Z" fill="#1F96C2"/>
<path d="M149.23 30.6875H39.52C36.4714 30.6875 34 33.1589 34 36.2075V115.917C34 118.966 36.4714 121.438 39.52 121.438H149.23C152.279 121.438 154.75 118.966 154.75 115.917V36.2075C154.75 33.1589 152.279 30.6875 149.23 30.6875Z" fill="#1A1A40"/>
<path d="M42.61 46.8125H147.25H42.61Z" stroke="#3B3B5D" stroke-width="0.75" stroke-miterlimit="10"/>
<path d="M42.61 59.5625H147.25H42.61Z" stroke="#3B3B5D" stroke-width="0.75" stroke-miterlimit="10"/>
<path d="M42.61 72.3125H147.25H42.61Z" stroke="#3B3B5D" stroke-width="0.75" stroke-miterlimit="10"/>
<path d="M42.61 85.0625H147.25H42.61Z" stroke="#3B3B5D" stroke-width="0.75" stroke-miterlimit="10"/>
<path d="M42.61 97.8125H147.25H42.61Z" stroke="#3B3B5D" stroke-width="0.75" stroke-miterlimit="10"/>
<path d="M42.61 110.562H147.25H42.61Z" stroke="#3B3B5D" stroke-width="0.75" stroke-miterlimit="10"/>
<path d="M146.545 65.87L142.045 70.1975L137.545 66.83L133.045 84.17L128.538 50.9375L124.038 90.425L119.538 65.3825L115.03 81.275L110.53 74.5325L106.03 84.17L101.53 55.2725L97.0225 93.32L92.5225 78.3875L88.0225 91.8725L83.5225 72.605L79.015 82.7225L74.515 71.645L69.3925 96.6875L70.015 50.9375L65.5075 73.8125L61.0075 69.2375L56.5075 84.65L52.0075 68.7575L47.5 90.905L43 69.2375" stroke="#FF623F" stroke-width="1.5" stroke-linecap="round" stroke-linejoin="round"/>
<path d="M41.5 39.6875C42.7426 39.6875 43.75 38.6801 43.75 37.4375C43.75 36.1949 42.7426 35.1875 41.5 35.1875C40.2574 35.1875 39.25 36.1949 39.25 37.4375C39.25 38.6801 40.2574 39.6875 41.5 39.6875Z" fill="white"/>
<path d="M48.25 39.6875C49.4926 39.6875 50.5 38.6801 50.5 37.4375C50.5 36.1949 49.4926 35.1875 48.25 35.1875C47.0074 35.1875 46 36.1949 46 37.4375C46 38.6801 47.0074 39.6875 48.25 39.6875Z" fill="white"/>
<path d="M55 39.6875C56.2426 39.6875 57.25 38.6801 57.25 37.4375C57.25 36.1949 56.2426 35.1875 55 35.1875C53.7574 35.1875 52.75 36.1949 52.75 37.4375C52.75 38.6801 53.7574 39.6875 55 39.6875Z" fill="white"/>
<path d="M200.605 82.0625H90.895C87.8464 82.0625 85.375 84.5339 85.375 87.5825V167.292C85.375 170.341 87.8464 172.812 90.895 172.812H200.605C203.654 172.812 206.125 170.341 206.125 167.292V87.5825C206.125 84.5339 203.654 82.0625 200.605 82.0625Z" fill="#5BA7D5"/>
<path d="M93.985 98.1875H198.625H93.985Z" stroke="#1F96C2" stroke-width="0.75" stroke-miterlimit="10"/>
<path d="M93.985 110.938H198.625H93.985Z" stroke="#1F96C2" stroke-width="0.75" stroke-miterlimit="10"/>
<path d="M93.985 123.688H198.625H93.985Z" stroke="#1F96C2" stroke-width="0.75" stroke-miterlimit="10"/>
<path d="M93.985 136.438H198.625H93.985Z" stroke="#1F96C2" stroke-width="0.75" stroke-miterlimit="10"/>
<path d="M93.985 149.188H198.625H93.985Z" stroke="#1F96C2" stroke-width="0.75" stroke-miterlimit="10"/>
<path d="M93.985 161.938H198.625H93.985Z" stroke="#1F96C2" stroke-width="0.75" stroke-miterlimit="10"/>
<path d="M92.875 91.0625C94.1176 91.0625 95.125 90.0551 95.125 88.8125C95.125 87.5699 94.1176 86.5625 92.875 86.5625C91.6324 86.5625 90.625 87.5699 90.625 88.8125C90.625 90.0551 91.6324 91.0625 92.875 91.0625Z" fill="white"/>
<path d="M99.625 91.0625C100.868 91.0625 101.875 90.0551 101.875 88.8125C101.875 87.5699 100.868 86.5625 99.625 86.5625C98.3824 86.5625 97.375 87.5699 97.375 88.8125C97.375 90.0551 98.3824 91.0625 99.625 91.0625Z" fill="white"/>
<path d="M106.375 91.0625C107.618 91.0625 108.625 90.0551 108.625 88.8125C108.625 87.5699 107.618 86.5625 106.375 86.5625C105.132 86.5625 104.125 87.5699 104.125 88.8125C104.125 90.0551 105.132 91.0625 106.375 91.0625Z" fill="white"/>
<path d="M93.985 129.815C93.985 129.815 101.237 116.24 107.56 116.24C113.882 116.24 116.875 156.305 122.875 156.305C128.875 156.305 150.625 100.055 158.125 100.055C165.625 100.055 172.375 140.555 179.125 140.555C185.875 140.555 188.875 129.387 198.625 129.387" stroke="white" stroke-width="1.5" stroke-linecap="round" stroke-linejoin="round"/>
<path d="M88.66 152.945L73.9375 146.113C71.7475 145.1 69.25 146.698 69.25 149.105V162.77C69.25 165.178 71.7475 166.775 73.9375 165.763L88.66 158.93C91.21 157.745 91.21 154.13 88.66 152.945Z" fill="#00CDA8"/>
<path d="M43 130.34V145.018C43 151.258 48.055 156.312 54.295 156.312H70" stroke="#00CDA8" stroke-width="6" stroke-linecap="round" stroke-linejoin="round"/>
</svg>
