<svg width="240" height="200" viewBox="0 0 240 200" fill="none" xmlns="http://www.w3.org/2000/svg">
<rect width="240" height="200" fill="white"/>
<path opacity="0.2" d="M171.74 36.25H18.26C12.5936 36.25 8 40.8436 8 46.51V144.49C8 150.156 12.5936 154.75 18.26 154.75H171.74C177.406 154.75 182 150.156 182 144.49V46.51C182 40.8436 177.406 36.25 171.74 36.25Z" fill="#1F96C2"/>
<path d="M172.025 34H117.725C112.216 34 107.75 38.466 107.75 43.975V62.275C107.75 67.784 112.216 72.25 117.725 72.25H172.025C177.534 72.25 182 67.784 182 62.275V43.975C182 38.466 177.534 34 172.025 34Z" fill="#1F96C2"/>
<path d="M128.165 56.7475C128.165 56.7475 128.202 56.7925 128.247 56.7925H132.83C132.912 56.7925 132.972 56.8225 133.017 56.875C133.062 56.9275 133.077 56.995 133.062 57.0775L132.732 59.8675C132.717 59.95 132.68 60.01 132.627 60.07C132.575 60.1225 132.507 60.1525 132.425 60.1525H123.44C123.267 60.1525 123.177 60.055 123.177 59.8675L123.53 56.9875C123.545 56.9125 123.597 56.7925 123.695 56.635L125.21 55.03C126.852 53.3125 127.985 52.045 128.615 51.2275C129.117 50.5525 129.5 49.93 129.762 49.375C130.025 48.8125 130.152 48.2725 130.152 47.755C130.152 47.11 129.905 46.7875 129.417 46.7875C129.162 46.7875 128.945 46.9 128.757 47.1175C128.57 47.335 128.457 47.62 128.427 47.965L128.307 48.9775C128.292 49.06 128.255 49.12 128.202 49.18C128.15 49.2325 128.082 49.2625 128 49.2625H124.692C124.61 49.2625 124.55 49.2325 124.505 49.18C124.46 49.1275 124.445 49.06 124.46 48.9775L124.602 47.7925C124.857 46.4875 125.48 45.43 126.47 44.6275C127.46 43.825 128.652 43.42 130.04 43.42C131.255 43.42 132.222 43.78 132.95 44.4925C133.677 45.2125 134.037 46.165 134.037 47.365C134.037 47.5225 134.022 47.7775 133.992 48.1225C133.88 48.97 133.655 49.75 133.317 50.4625C132.98 51.175 132.477 51.9325 131.817 52.7575C131.3 53.4025 130.43 54.3475 129.215 55.5925L128.202 56.6575C128.202 56.6575 128.157 56.7175 128.165 56.755V56.7475Z" fill="white"/>
<path d="M137.39 43.6075H140.75C140.825 43.6075 140.892 43.6375 140.937 43.69C140.982 43.7425 140.997 43.81 140.982 43.8925L139.017 59.875C139.002 59.9575 138.965 60.0175 138.912 60.0775C138.86 60.13 138.792 60.16 138.71 60.16H135.447C135.365 60.16 135.305 60.13 135.26 60.0775C135.215 60.025 135.2 59.9575 135.215 59.875L136.752 47.4175C136.752 47.3425 136.722 47.2975 136.655 47.2975L134.93 47.395C134.757 47.395 134.675 47.305 134.697 47.1325L134.96 44.6275C134.975 44.47 135.065 44.365 135.222 44.32L137.045 43.6825C137.157 43.6375 137.27 43.615 137.397 43.615L137.39 43.6075Z" fill="white"/>
<path d="M141.02 59.8C140.697 59.47 140.532 59.0425 140.532 58.525C140.532 57.85 140.75 57.2875 141.192 56.845C141.635 56.4025 142.167 56.185 142.797 56.185C143.33 56.185 143.757 56.3425 144.072 56.6575C144.387 56.9725 144.545 57.4 144.545 57.9325C144.545 58.5925 144.327 59.155 143.885 59.6125C143.442 60.07 142.917 60.295 142.302 60.295C141.77 60.295 141.335 60.13 141.012 59.8H141.02Z" fill="white"/>
<path d="M155.547 54.955L155.382 56.2525C155.195 57.5425 154.64 58.5475 153.717 59.2675C152.795 59.9875 151.632 60.34 150.23 60.34C148.91 60.34 147.882 60.01 147.147 59.35C146.412 58.69 146.075 57.715 146.12 56.4175C146.12 56.0725 146.142 55.6975 146.187 55.3075L147.087 47.695C147.23 46.39 147.77 45.3475 148.715 44.575C149.66 43.8025 150.837 43.42 152.24 43.42C153.455 43.42 154.43 43.75 155.172 44.41C155.915 45.07 156.282 45.9625 156.282 47.08C156.282 47.2075 156.267 47.41 156.237 47.695L156.117 48.5725C156.102 48.655 156.065 48.715 156.012 48.775C155.96 48.8275 155.892 48.8575 155.81 48.8575H152.547C152.465 48.8575 152.405 48.8275 152.36 48.775C152.315 48.7225 152.3 48.655 152.315 48.5725L152.382 47.9575L152.405 47.7175C152.405 47.485 152.345 47.2825 152.225 47.1175C152.105 46.9525 151.97 46.87 151.812 46.87C151.572 46.87 151.37 46.9675 151.197 47.1625C151.025 47.3575 150.912 47.62 150.867 47.9575L150.582 50.275C150.582 50.3725 150.627 50.3875 150.725 50.32C151.325 49.8625 151.94 49.6375 152.57 49.6375C153.56 49.6375 154.332 49.9525 154.872 50.5825C155.412 51.2125 155.69 52.0825 155.69 53.185C155.69 53.47 155.682 53.68 155.667 53.8225C155.652 54.025 155.615 54.4075 155.547 54.955ZM151.715 54.67L151.835 53.4175C151.85 53.1325 151.797 52.9075 151.67 52.735C151.542 52.5625 151.377 52.4725 151.175 52.4725C150.935 52.4725 150.74 52.5625 150.575 52.735C150.41 52.9075 150.297 53.1475 150.23 53.4475L150.042 54.6775L149.9 56.005C149.885 56.32 149.937 56.5675 150.065 56.74C150.192 56.9125 150.372 57.0025 150.605 57.0025C150.837 57.0025 151.04 56.9125 151.197 56.7325C151.355 56.5525 151.467 56.305 151.527 55.99L151.715 54.6925V54.67Z" fill="white"/>
<path d="M159.117 60.0775C159.072 60.0325 159.042 59.965 159.042 59.89L157.745 43.9075C157.745 43.705 157.842 43.6 158.03 43.6H161.577C161.75 43.6 161.84 43.69 161.84 43.8625L162.005 53.2975C162.005 53.3575 162.027 53.3875 162.065 53.38C162.102 53.3725 162.125 53.3425 162.125 53.2975L164.51 43.8625C164.555 43.69 164.667 43.6 164.84 43.6H168.29C168.477 43.6 168.545 43.705 168.477 43.9075L163.257 59.89C163.212 60.0625 163.1 60.1525 162.927 60.1525H159.312C159.23 60.1525 159.17 60.13 159.125 60.085L159.117 60.0775Z" fill="white"/>
<path d="M221.525 82H163.475C157.966 82 153.5 86.466 153.5 91.975V111.775C153.5 117.284 157.966 121.75 163.475 121.75H221.525C227.034 121.75 231.5 117.284 231.5 111.775V91.975C231.5 86.466 227.034 82 221.525 82Z" fill="#1F96C2"/>
<path d="M170.72 102.603C170.758 102.64 170.765 102.693 170.758 102.753L170.473 104.973C170.458 105.033 170.435 105.078 170.39 105.123C170.345 105.168 170.3 105.183 170.24 105.183H169.678C169.618 105.183 169.588 105.213 169.588 105.273L169.25 108.003C169.235 108.063 169.213 108.108 169.168 108.153C169.123 108.198 169.078 108.213 169.018 108.213H166.588C166.528 108.213 166.483 108.19 166.445 108.153C166.408 108.115 166.4 108.063 166.408 108.003L166.745 105.273C166.745 105.213 166.715 105.183 166.655 105.183H162.328C162.268 105.183 162.223 105.16 162.185 105.123C162.148 105.085 162.14 105.033 162.148 104.973L162.358 103.21C162.38 103.09 162.403 103.008 162.425 102.963L165.455 96.0625C165.515 95.9425 165.598 95.8825 165.703 95.8825H168.29C168.358 95.8825 168.41 95.905 168.433 95.95C168.455 95.995 168.455 96.055 168.433 96.13L165.778 102.43C165.74 102.498 165.763 102.535 165.83 102.535H166.993C167.053 102.535 167.083 102.505 167.083 102.445L167.278 100.93C167.293 100.87 167.315 100.825 167.36 100.78C167.405 100.735 167.45 100.72 167.51 100.72H169.94C170 100.72 170.045 100.743 170.083 100.78C170.12 100.818 170.128 100.87 170.12 100.93L169.925 102.445C169.925 102.505 169.955 102.535 170.015 102.535H170.578C170.638 102.535 170.683 102.558 170.72 102.595V102.603Z" fill="white"/>
<path d="M178.093 104.335L177.95 105.34C177.823 106.277 177.41 107.012 176.72 107.552C176.03 108.085 175.16 108.355 174.118 108.355C173.143 108.355 172.393 108.115 171.853 107.627C171.32 107.14 171.05 106.412 171.05 105.437L171.088 104.942C171.11 104.8 171.185 104.732 171.313 104.732H173.743C173.848 104.732 173.908 104.785 173.915 104.89V105.19C173.915 105.632 174.08 105.857 174.41 105.857C174.8 105.857 175.04 105.617 175.13 105.137C175.168 104.965 175.205 104.695 175.258 104.342C175.265 104.245 175.28 104.14 175.295 104.027C175.303 103.907 175.31 103.787 175.31 103.66C175.318 103.45 175.28 103.277 175.183 103.15C175.093 103.022 174.958 102.955 174.778 102.955C174.463 102.955 174.245 103.097 174.125 103.375C174.065 103.502 173.983 103.57 173.878 103.57H171.433C171.373 103.57 171.328 103.547 171.29 103.51C171.253 103.472 171.245 103.42 171.253 103.36L172.13 96.1075C172.145 96.0475 172.168 96.0025 172.213 95.9575C172.25 95.92 172.303 95.8975 172.363 95.8975H178.843C178.903 95.8975 178.948 95.92 178.985 95.9575C179.023 96.0025 179.03 96.0475 179.023 96.1075L178.775 98.185C178.76 98.245 178.738 98.2975 178.693 98.335C178.648 98.38 178.603 98.395 178.543 98.395H174.778C174.718 98.395 174.688 98.425 174.688 98.485L174.373 100.967C174.373 100.967 174.388 101.02 174.41 101.027C174.433 101.035 174.455 101.027 174.478 100.997C174.92 100.622 175.423 100.435 175.97 100.435C176.675 100.435 177.223 100.652 177.605 101.095C177.995 101.537 178.183 102.152 178.183 102.955C178.183 103.075 178.168 103.247 178.145 103.48C178.145 103.652 178.123 103.945 178.078 104.342L178.093 104.335Z" fill="white"/>
<path d="M185.788 104.335L185.668 105.302C185.525 106.262 185.113 107.012 184.43 107.545C183.74 108.077 182.878 108.347 181.835 108.347C180.853 108.347 180.088 108.1 179.54 107.605C178.993 107.11 178.738 106.382 178.775 105.422C178.775 105.167 178.79 104.89 178.828 104.597L179.495 98.9275C179.6 97.9525 180.005 97.18 180.71 96.6025C181.415 96.025 182.285 95.74 183.335 95.74C184.243 95.74 184.963 95.9875 185.518 96.4825C186.073 96.9775 186.343 97.6375 186.343 98.47C186.343 98.56 186.328 98.7175 186.305 98.9275L186.215 99.58C186.2 99.64 186.178 99.685 186.133 99.73C186.088 99.775 186.043 99.79 185.983 99.79H183.553C183.493 99.79 183.448 99.7675 183.41 99.73C183.373 99.6925 183.365 99.64 183.373 99.58L183.425 99.1225L183.44 98.95C183.44 98.77 183.395 98.6275 183.305 98.5C183.215 98.3725 183.118 98.3125 182.998 98.3125C182.825 98.3125 182.668 98.3875 182.54 98.53C182.413 98.68 182.33 98.875 182.293 99.1225L182.083 100.847C182.083 100.915 182.12 100.93 182.188 100.885C182.63 100.547 183.095 100.375 183.56 100.375C184.303 100.375 184.873 100.607 185.278 101.08C185.683 101.552 185.885 102.197 185.885 103.015C185.885 103.225 185.885 103.382 185.87 103.487C185.855 103.637 185.833 103.922 185.78 104.335H185.788ZM182.938 104.125L183.028 103.195C183.043 102.985 182.998 102.812 182.908 102.685C182.818 102.557 182.69 102.49 182.54 102.49C182.368 102.49 182.218 102.557 182.09 102.685C181.963 102.812 181.88 102.992 181.835 103.21L181.693 104.125L181.588 105.107C181.573 105.34 181.618 105.527 181.708 105.655C181.798 105.782 181.933 105.85 182.113 105.85C182.293 105.85 182.435 105.782 182.555 105.647C182.675 105.512 182.758 105.325 182.803 105.092L182.945 104.125H182.938Z" fill="white"/>
<path d="M194.765 102.603C194.803 102.64 194.81 102.693 194.803 102.753L194.518 104.973C194.503 105.033 194.48 105.078 194.435 105.123C194.39 105.168 194.345 105.183 194.285 105.183H193.723C193.663 105.183 193.633 105.213 193.633 105.273L193.295 108.003C193.28 108.063 193.258 108.108 193.213 108.153C193.168 108.198 193.123 108.213 193.063 108.213H190.633C190.573 108.213 190.528 108.19 190.49 108.153C190.453 108.115 190.445 108.063 190.453 108.003L190.79 105.273C190.79 105.213 190.76 105.183 190.7 105.183H186.373C186.313 105.183 186.268 105.16 186.23 105.123C186.193 105.085 186.185 105.033 186.193 104.973L186.403 103.21C186.425 103.09 186.448 103.008 186.47 102.963L189.5 96.0625C189.56 95.9425 189.643 95.8825 189.748 95.8825H192.335C192.403 95.8825 192.455 95.905 192.478 95.95C192.5 95.995 192.5 96.055 192.478 96.13L189.823 102.43C189.785 102.498 189.808 102.535 189.875 102.535H191.038C191.098 102.535 191.128 102.505 191.128 102.445L191.323 100.93C191.338 100.87 191.36 100.825 191.405 100.78C191.45 100.735 191.495 100.72 191.555 100.72H193.985C194.045 100.72 194.09 100.743 194.128 100.78C194.165 100.818 194.173 100.87 194.165 100.93L193.97 102.445C193.97 102.505 194 102.535 194.06 102.535H194.623C194.683 102.535 194.728 102.558 194.765 102.595V102.603Z" fill="white"/>
<path d="M206.36 101.327C206.36 101.56 206.345 101.815 206.308 102.085L205.573 107.995C205.558 108.055 205.535 108.1 205.49 108.145C205.445 108.19 205.4 108.205 205.34 108.205H202.91C202.85 108.205 202.805 108.182 202.768 108.145C202.73 108.107 202.723 108.055 202.73 107.995L203.435 102.295C203.45 102.25 203.45 102.175 203.45 102.085C203.45 101.882 203.413 101.732 203.33 101.627C203.248 101.522 203.135 101.47 202.993 101.47C202.603 101.47 202.378 101.74 202.303 102.28L201.598 108.002C201.583 108.062 201.56 108.107 201.515 108.152C201.47 108.197 201.425 108.212 201.365 108.212H198.935C198.875 108.212 198.83 108.19 198.793 108.152C198.755 108.115 198.748 108.062 198.755 108.002L199.46 102.302C199.475 102.257 199.475 102.182 199.475 102.092C199.475 101.89 199.438 101.74 199.355 101.635C199.273 101.53 199.16 101.477 199.018 101.477C198.83 101.477 198.68 101.545 198.56 101.687C198.44 101.83 198.365 102.025 198.328 102.287L197.623 108.01C197.608 108.07 197.585 108.115 197.54 108.16C197.495 108.205 197.45 108.22 197.39 108.22H194.96C194.9 108.22 194.855 108.197 194.818 108.16C194.78 108.122 194.773 108.07 194.78 108.01L195.853 99.3325C195.868 99.2725 195.89 99.2275 195.935 99.1825C195.98 99.1375 196.025 99.1225 196.085 99.1225H198.515C198.575 99.1225 198.62 99.145 198.658 99.1825C198.695 99.22 198.703 99.2725 198.695 99.3325L198.68 99.505C198.68 99.505 198.68 99.565 198.695 99.5725C198.71 99.58 198.74 99.5725 198.763 99.5575C199.22 99.1675 199.738 98.98 200.308 98.98C201.215 98.98 201.815 99.325 202.123 100.015C202.123 100.03 202.138 100.03 202.16 100.03C202.205 100.03 202.25 99.9925 202.303 99.925C202.805 99.295 203.465 98.9725 204.275 98.9725C205.648 98.9725 206.338 99.76 206.338 101.327H206.36Z" fill="white"/>
<path d="M211.58 99.175C211.618 99.1375 211.67 99.115 211.73 99.115H214.16C214.22 99.115 214.265 99.1375 214.303 99.175C214.34 99.2125 214.348 99.265 214.34 99.325L213.268 108.002C213.253 108.062 213.23 108.107 213.185 108.152C213.14 108.197 213.095 108.212 213.035 108.212H210.605C210.545 108.212 210.5 108.19 210.463 108.152C210.425 108.115 210.418 108.062 210.425 108.002L210.493 107.545C210.493 107.5 210.478 107.477 210.455 107.477C210.433 107.477 210.41 107.492 210.388 107.53C209.99 108.085 209.435 108.355 208.73 108.355C207.38 108.355 206.705 107.597 206.705 106.082C206.705 105.827 206.72 105.565 206.758 105.31L207.163 102.017C207.418 99.985 208.325 98.9725 209.87 98.9725C210.575 98.9725 211.063 99.2575 211.333 99.82C211.34 99.865 211.363 99.8875 211.385 99.88C211.408 99.88 211.423 99.85 211.438 99.7975L211.49 99.325C211.505 99.265 211.528 99.22 211.573 99.175H211.58ZM210.568 105.64C210.695 105.497 210.77 105.31 210.793 105.077L211.13 102.242C211.13 102.242 211.145 102.152 211.145 102.07C211.145 101.89 211.1 101.747 211.003 101.635C210.905 101.522 210.785 101.47 210.635 101.47C210.47 101.47 210.328 101.537 210.2 101.68C210.073 101.822 210.005 102.01 209.983 102.242L209.63 105.077C209.608 105.31 209.63 105.497 209.72 105.64C209.803 105.782 209.923 105.85 210.088 105.85C210.275 105.85 210.433 105.782 210.56 105.64H210.568Z" fill="white"/>
<path d="M221.338 99.58C221.675 99.985 221.848 100.562 221.848 101.312C221.848 101.545 221.833 101.8 221.795 102.07L221.053 108.002C221.038 108.062 221.015 108.108 220.97 108.153C220.925 108.19 220.88 108.212 220.82 108.212H218.39C218.33 108.212 218.285 108.19 218.248 108.153C218.21 108.115 218.203 108.062 218.21 108.002L218.915 102.265C218.93 102.205 218.93 102.13 218.93 102.04C218.93 101.665 218.78 101.477 218.473 101.477C218.285 101.477 218.128 101.545 218.008 101.687C217.888 101.83 217.805 102.025 217.768 102.288L217.063 108.01C217.048 108.07 217.025 108.115 216.98 108.16C216.935 108.205 216.89 108.22 216.83 108.22H214.4C214.34 108.22 214.295 108.197 214.258 108.16C214.22 108.122 214.213 108.07 214.22 108.01L215.683 96.115C215.698 96.055 215.72 96.01 215.765 95.965C215.803 95.9275 215.855 95.905 215.915 95.905H218.345C218.405 95.905 218.45 95.9275 218.488 95.965C218.525 96.01 218.533 96.055 218.525 96.115L218.083 99.685C218.083 99.685 218.098 99.7225 218.12 99.7225C218.158 99.7225 218.21 99.685 218.278 99.6175C218.675 99.1975 219.178 98.9875 219.778 98.9875C220.468 98.9875 220.985 99.19 221.33 99.595L221.338 99.58Z" fill="white"/>
<path d="M181.775 133.75H132.725C127.216 133.75 122.75 138.216 122.75 143.725V156.025C122.75 161.534 127.216 166 132.725 166H181.775C187.284 166 191.75 161.534 191.75 156.025V143.725C191.75 138.216 187.284 133.75 181.775 133.75Z" fill="#1F96C2"/>
<path d="M135.477 152.747C135.477 152.747 135.5 152.777 135.53 152.777H138.305C138.35 152.777 138.387 152.792 138.417 152.83C138.447 152.867 138.455 152.905 138.447 152.95L138.245 154.637C138.237 154.682 138.215 154.727 138.177 154.757C138.147 154.787 138.102 154.81 138.057 154.81H132.62C132.515 154.81 132.462 154.75 132.462 154.637L132.68 152.89C132.687 152.845 132.725 152.77 132.777 152.672L133.692 151.697C134.682 150.662 135.372 149.89 135.755 149.395C136.062 148.982 136.287 148.607 136.445 148.27C136.602 147.932 136.685 147.602 136.685 147.287C136.685 146.897 136.535 146.702 136.242 146.702C136.092 146.702 135.957 146.77 135.845 146.905C135.732 147.04 135.665 147.212 135.642 147.422L135.575 148.037C135.567 148.082 135.545 148.127 135.507 148.157C135.477 148.187 135.432 148.21 135.387 148.21H133.385C133.34 148.21 133.302 148.195 133.272 148.157C133.242 148.127 133.235 148.082 133.242 148.037L133.325 147.325C133.475 146.53 133.857 145.892 134.457 145.405C135.057 144.917 135.777 144.677 136.617 144.677C137.352 144.677 137.937 144.895 138.38 145.33C138.815 145.765 139.04 146.342 139.04 147.07C139.04 147.167 139.032 147.317 139.01 147.527C138.942 148.045 138.807 148.517 138.605 148.945C138.402 149.372 138.095 149.837 137.697 150.332C137.382 150.722 136.857 151.292 136.122 152.05L135.507 152.695C135.507 152.695 135.477 152.732 135.485 152.755L135.477 152.747Z" fill="white"/>
<path d="M141.057 144.797H143.09C143.135 144.797 143.172 144.812 143.202 144.85C143.232 144.88 143.24 144.925 143.232 144.97L142.047 154.637C142.04 154.682 142.017 154.727 141.98 154.757C141.942 154.787 141.905 154.81 141.86 154.81H139.888C139.843 154.81 139.805 154.795 139.775 154.757C139.745 154.727 139.737 154.682 139.745 154.637L140.675 147.1C140.675 147.055 140.653 147.025 140.615 147.025L139.572 147.085C139.467 147.085 139.423 147.032 139.43 146.927L139.587 145.412C139.595 145.315 139.647 145.255 139.745 145.225L140.847 144.842C140.915 144.812 140.982 144.797 141.065 144.797H141.057Z" fill="white"/>
<path d="M148.767 151.667L148.655 152.485C148.55 153.25 148.22 153.85 147.657 154.277C147.095 154.705 146.39 154.93 145.542 154.93C144.755 154.93 144.14 154.735 143.705 154.337C143.27 153.94 143.052 153.347 143.052 152.56L143.082 152.162C143.105 152.05 143.165 151.99 143.27 151.99H145.242C145.325 151.99 145.377 152.035 145.385 152.117V152.357C145.385 152.717 145.52 152.897 145.782 152.897C146.097 152.897 146.292 152.702 146.367 152.312C146.397 152.17 146.427 151.952 146.465 151.667C146.472 151.592 146.487 151.502 146.495 151.412C146.502 151.322 146.51 151.217 146.51 151.112C146.517 150.94 146.487 150.805 146.412 150.7C146.337 150.595 146.225 150.542 146.082 150.542C145.827 150.542 145.647 150.655 145.55 150.887C145.505 150.992 145.437 151.045 145.347 151.045H143.36C143.315 151.045 143.277 151.03 143.247 150.992C143.217 150.962 143.21 150.917 143.217 150.872L143.93 144.977C143.937 144.932 143.96 144.887 143.997 144.857C144.027 144.827 144.072 144.805 144.117 144.805H149.382C149.427 144.805 149.472 144.82 149.495 144.857C149.525 144.887 149.532 144.932 149.525 144.977L149.322 146.665C149.315 146.71 149.292 146.755 149.255 146.785C149.225 146.815 149.18 146.837 149.135 146.837H146.075C146.03 146.837 146.007 146.86 146.007 146.912L145.752 148.93C145.752 148.93 145.76 148.975 145.782 148.982C145.805 148.982 145.82 148.982 145.842 148.96C146.202 148.652 146.607 148.502 147.057 148.502C147.627 148.502 148.07 148.682 148.385 149.035C148.7 149.395 148.857 149.897 148.857 150.542C148.857 150.64 148.85 150.782 148.827 150.97C148.827 151.112 148.805 151.345 148.767 151.667Z" fill="white"/>
<path d="M149.937 154.292C149.487 153.835 149.262 153.22 149.262 152.447C149.262 152.35 149.27 152.192 149.292 151.96L149.825 147.64C149.937 146.732 150.29 146.005 150.875 145.45C151.46 144.895 152.187 144.617 153.042 144.617C153.815 144.617 154.422 144.842 154.872 145.3C155.322 145.75 155.547 146.365 155.547 147.137C155.547 147.355 155.54 147.52 155.517 147.64L154.985 151.96C154.872 152.875 154.52 153.61 153.935 154.157C153.35 154.705 152.622 154.982 151.767 154.982C150.995 154.982 150.387 154.757 149.937 154.292ZM152.442 152.702C152.555 152.552 152.63 152.35 152.675 152.102L153.23 147.497C153.237 147.452 153.245 147.377 153.245 147.28C153.245 147.092 153.207 146.942 153.132 146.83C153.057 146.717 152.945 146.665 152.802 146.665C152.63 146.665 152.487 146.74 152.375 146.897C152.262 147.055 152.187 147.25 152.157 147.497L151.587 152.102C151.58 152.14 151.572 152.2 151.572 152.29C151.572 152.477 151.61 152.635 151.692 152.755C151.775 152.875 151.887 152.935 152.03 152.935C152.195 152.935 152.33 152.86 152.442 152.71V152.702Z" fill="white"/>
<path d="M161.84 154.667L161.368 150.88C161.36 150.842 161.338 150.82 161.293 150.82H161.09C161.053 150.82 161.023 150.842 161 150.887L160.543 154.637C160.535 154.682 160.513 154.727 160.475 154.757C160.445 154.787 160.4 154.81 160.355 154.81H158.383C158.338 154.81 158.3 154.795 158.27 154.757C158.24 154.727 158.233 154.682 158.24 154.637L159.425 144.97C159.433 144.925 159.455 144.88 159.493 144.85C159.53 144.82 159.568 144.797 159.613 144.797H162.598C163.333 144.797 163.91 145.03 164.338 145.495C164.765 145.96 164.975 146.59 164.975 147.37C164.975 147.595 164.968 147.775 164.945 147.902C164.878 148.435 164.728 148.915 164.48 149.342C164.233 149.77 163.933 150.107 163.558 150.362C163.535 150.37 163.528 150.385 163.513 150.4C163.505 150.415 163.505 150.43 163.513 150.452L164.188 154.615V154.645C164.188 154.757 164.135 154.817 164.03 154.817H161.998C161.893 154.817 161.833 154.772 161.825 154.675L161.84 154.667ZM161.495 146.905L161.255 148.937C161.255 148.982 161.278 149.012 161.315 149.012H161.705C161.99 149.012 162.223 148.892 162.403 148.66C162.583 148.427 162.673 148.105 162.673 147.692C162.673 147.415 162.613 147.205 162.485 147.055C162.358 146.905 162.192 146.83 161.967 146.83H161.578C161.54 146.83 161.51 146.852 161.495 146.905Z" fill="white"/>
<path d="M171.005 145.51C171.432 145.982 171.65 146.612 171.65 147.407C171.65 147.64 171.642 147.812 171.62 147.94C171.507 148.847 171.177 149.575 170.622 150.122C170.067 150.67 169.407 150.947 168.627 150.947H167.727C167.69 150.947 167.66 150.97 167.645 151.015L167.202 154.645C167.195 154.69 167.172 154.735 167.135 154.765C167.105 154.795 167.06 154.817 167.015 154.817H165.042C164.997 154.817 164.96 154.802 164.93 154.765C164.9 154.735 164.892 154.69 164.9 154.645L166.085 144.977C166.092 144.932 166.115 144.887 166.152 144.857C166.19 144.827 166.227 144.805 166.272 144.805H169.272C170 144.805 170.57 145.037 171.005 145.51ZM169.047 148.742C169.227 148.502 169.317 148.157 169.317 147.722C169.317 147.437 169.257 147.22 169.13 147.062C169.002 146.912 168.837 146.83 168.612 146.83H168.222C168.177 146.83 168.155 146.852 168.155 146.905L167.885 149.035C167.885 149.08 167.907 149.11 167.945 149.11H168.342C168.627 149.11 168.86 148.99 169.04 148.742H169.047Z" fill="white"/>
<path d="M177.425 144.797H179.352C179.397 144.797 179.435 144.812 179.465 144.85C179.495 144.88 179.502 144.925 179.495 144.97L178.31 154.637C178.302 154.682 178.28 154.727 178.25 154.757C178.22 154.787 178.175 154.81 178.13 154.81H176.157C176.112 154.81 176.075 154.795 176.045 154.757C176.015 154.727 176.007 154.682 176.015 154.637L176.772 148.502C176.78 148.465 176.772 148.442 176.75 148.435C176.727 148.435 176.705 148.435 176.682 148.472L175.497 150.22C175.46 150.295 175.43 150.332 175.415 150.332C175.385 150.332 175.355 150.295 175.332 150.22L174.575 148.472C174.575 148.472 174.537 148.427 174.522 148.427C174.507 148.427 174.492 148.45 174.485 148.487L173.727 154.637C173.72 154.682 173.697 154.727 173.66 154.757C173.63 154.787 173.585 154.81 173.54 154.81H171.567C171.522 154.81 171.485 154.795 171.455 154.757C171.425 154.727 171.417 154.682 171.425 154.637L172.61 144.97C172.617 144.925 172.64 144.88 172.677 144.85C172.715 144.82 172.752 144.797 172.797 144.797H174.74C174.822 144.797 174.89 144.835 174.942 144.91L175.782 146.98C175.812 147.017 175.842 147.017 175.865 146.98L177.207 144.91C177.245 144.835 177.32 144.797 177.425 144.797Z" fill="white"/>
<path d="M119 79.7125C132.47 93.1825 132.47 115.03 119 128.5" stroke="#FF623F" stroke-width="6" stroke-linecap="round" stroke-linejoin="round"/>
<path d="M109.453 89.2525C117.65 97.45 117.65 110.748 109.453 118.953" stroke="#FF623F" stroke-width="6" stroke-linecap="round" stroke-linejoin="round"/>
<path d="M99.905 98.8C102.838 101.733 102.838 106.48 99.905 109.405" stroke="#FF623F" stroke-width="6" stroke-linecap="round" stroke-linejoin="round"/>
<path d="M85.19 45.535H20.81C17.8774 45.535 15.5 47.9124 15.5 50.845V155.545C15.5 158.478 17.8774 160.855 20.81 160.855H85.19C88.1226 160.855 90.5 158.478 90.5 155.545V50.845C90.5 47.9124 88.1226 45.535 85.19 45.535Z" fill="#1A1A40"/>
<path d="M26.7876 58.0075V76.465" stroke="#3B3B5D" stroke-width="1.5" stroke-miterlimit="10"/>
<path d="M37.2725 58.0075V76.465" stroke="#3B3B5D" stroke-width="1.5" stroke-miterlimit="10"/>
<path d="M47.7576 58.0075V76.465" stroke="#3B3B5D" stroke-width="1.5" stroke-miterlimit="10"/>
<path d="M58.2424 58.0075V76.465" stroke="#3B3B5D" stroke-width="1.5" stroke-miterlimit="10"/>
<path d="M68.7275 58.0075V76.465" stroke="#3B3B5D" stroke-width="1.5" stroke-miterlimit="10"/>
<path d="M79.2124 58.0075V76.465" stroke="#3B3B5D" stroke-width="1.5" stroke-miterlimit="10"/>
<path d="M26.7876 81.9775V100.435" stroke="#3B3B5D" stroke-width="1.5" stroke-miterlimit="10"/>
<path d="M37.2725 81.9775V100.435" stroke="#3B3B5D" stroke-width="1.5" stroke-miterlimit="10"/>
<path d="M47.7576 81.9775V100.435" stroke="#3B3B5D" stroke-width="1.5" stroke-miterlimit="10"/>
<path d="M58.2424 81.9775V100.435" stroke="#3B3B5D" stroke-width="1.5" stroke-miterlimit="10"/>
<path d="M68.7275 81.9775V100.435" stroke="#3B3B5D" stroke-width="1.5" stroke-miterlimit="10"/>
<path d="M79.2124 81.9775V100.435" stroke="#3B3B5D" stroke-width="1.5" stroke-miterlimit="10"/>
<path d="M26.7876 105.948V124.405" stroke="#3B3B5D" stroke-width="1.5" stroke-miterlimit="10"/>
<path d="M37.2725 105.948V124.405" stroke="#3B3B5D" stroke-width="1.5" stroke-miterlimit="10"/>
<path d="M47.7576 105.948V124.405" stroke="#3B3B5D" stroke-width="1.5" stroke-miterlimit="10"/>
<path d="M58.2424 105.948V124.405" stroke="#3B3B5D" stroke-width="1.5" stroke-miterlimit="10"/>
<path d="M68.7275 105.948V124.405" stroke="#3B3B5D" stroke-width="1.5" stroke-miterlimit="10"/>
<path d="M79.2124 105.948V124.405" stroke="#3B3B5D" stroke-width="1.5" stroke-miterlimit="10"/>
<path d="M26.7876 129.918V148.383" stroke="#3B3B5D" stroke-width="1.5" stroke-miterlimit="10"/>
<path d="M37.2725 129.918V148.383" stroke="#3B3B5D" stroke-width="1.5" stroke-miterlimit="10"/>
<path d="M47.7576 129.918V148.383" stroke="#3B3B5D" stroke-width="1.5" stroke-miterlimit="10"/>
<path d="M58.2424 129.918V148.383" stroke="#3B3B5D" stroke-width="1.5" stroke-miterlimit="10"/>
<path d="M68.7275 129.918V148.383" stroke="#3B3B5D" stroke-width="1.5" stroke-miterlimit="10"/>
<path d="M79.2124 129.918V148.383" stroke="#3B3B5D" stroke-width="1.5" stroke-miterlimit="10"/>
<path d="M30.6499 41.5H43.0849C44.3299 41.5 45.3349 42.505 45.3349 43.75V45.535H28.3999V43.75C28.3999 42.505 29.4049 41.5 30.6499 41.5Z" fill="#3B3B5D"/>
<path d="M62.105 41.5H74.54C75.785 41.5 76.79 42.505 76.79 43.75V45.535H59.855V43.75C59.855 42.505 60.86 41.5 62.105 41.5Z" fill="#FF623F"/>
<path d="M37.4451 166.503H30.6576C29.4126 166.503 28.4076 165.498 28.4076 164.253V160.855H39.6951V164.253C39.6951 165.498 38.6901 166.503 37.4451 166.503Z" fill="#3B3B5D"/>
<path d="M56.8025 166.503H50.015C48.77 166.503 47.765 165.498 47.765 164.253V160.855H59.0525V164.253C59.0525 165.498 58.0475 166.503 56.8025 166.503Z" fill="#3B3B5D"/>
<path d="M76.1526 166.503H69.3651C68.1201 166.503 67.1151 165.498 67.1151 164.253V160.855H78.4026V164.253C78.4026 165.498 77.3976 166.503 76.1526 166.503Z" fill="#3B3B5D"/>
</svg>
