<svg width="240" height="200" viewBox="0 0 240 200" fill="none" xmlns="http://www.w3.org/2000/svg">
<rect width="240" height="200" fill="white"/>
<path opacity="0.2" d="M115.567 174.135C161.168 174.135 198.135 137.168 198.135 91.5675C198.135 45.9667 161.168 9 115.567 9C69.9667 9 33 45.9667 33 91.5675C33 137.168 69.9667 174.135 115.567 174.135Z" fill="#1F96C2"/>
<path d="M57.9526 118.905C54.0151 110.617 51.8101 101.355 51.8101 91.5675C51.8101 56.355 80.3551 27.81 115.568 27.81" stroke="#00CDA8" stroke-width="6" stroke-linecap="round" stroke-linejoin="round"/>
<path d="M201.232 80.3175H158.842C151.912 80.3175 145.485 76.98 141.217 71.52C134.88 63.42 124.793 58.4025 113.565 59.07C96.9975 60.06 83.685 73.665 83.0325 90.255C82.2975 108.832 97.1475 124.125 115.568 124.125C126.09 124.125 135.443 119.138 141.39 111.39C145.62 105.893 152.28 102.817 159.217 102.817H201.232C204.908 102.817 207.878 99.84 207.878 96.1725V86.97C207.878 83.295 204.9 80.325 201.232 80.325V80.3175Z" fill="#1A1A40"/>
<path d="M67.7401 129.405L66.2926 113.243C66.0751 110.843 63.4426 109.47 61.3576 110.678L49.5226 117.51C47.4376 118.717 47.3026 121.68 49.2751 123.067L62.5501 132.397C64.8451 134.01 67.9801 132.202 67.7326 129.405H67.7401Z" fill="#00CDA8"/>
<path d="M152.01 84.765H200.385" stroke="#3B3B5D" stroke-width="1.5" stroke-miterlimit="10"/>
<path d="M152.01 90.765H200.385" stroke="#3B3B5D" stroke-width="1.5" stroke-miterlimit="10"/>
<path d="M152.01 96.765H200.385" stroke="#3B3B5D" stroke-width="1.5" stroke-miterlimit="10"/>
<path d="M107.25 120.585C110.378 114.975 112.703 110.497 114.45 106.95C115.23 105.36 116.663 104.182 118.373 103.725C120.488 103.162 122.49 102.06 124.148 100.402C127.29 97.26 128.46 92.895 127.673 88.83C127.313 87 127.778 85.1175 128.963 83.685C141.263 68.88 164.235 43.11 186.578 28.185C188.34 27.0075 188.543 24.51 186.99 23.0775C180.818 17.37 167.415 6.45 157.882 9.9225C146.107 14.205 135.375 40.6125 124.005 61.035C120.653 67.0575 118.215 71.7675 116.438 75.4275C115.62 77.1075 114.098 78.3375 112.268 78.735C109.95 79.245 107.753 80.4 105.945 82.2C102.75 85.395 101.595 89.8575 102.465 93.975C102.863 95.8425 102.413 97.785 101.183 99.2475C88.65 114.225 66.36 138.938 44.67 153.427C42.9075 154.605 42.6975 157.102 44.2575 158.535C50.43 164.242 63.8325 175.162 73.365 171.69C85.14 167.407 95.8725 141 107.243 120.577L107.25 120.585Z" fill="#5BA7D5"/>
<path d="M115.568 97.6275C118.914 97.6275 121.628 94.9143 121.628 91.5675C121.628 88.2206 118.914 85.5075 115.568 85.5075C112.221 85.5075 109.508 88.2206 109.508 91.5675C109.508 94.9143 112.221 97.6275 115.568 97.6275Z" fill="white"/>
<path d="M169.583 141.72H160.95L172.185 119.362C173.235 117.27 171.713 114.81 169.38 114.81H151.013C149.655 114.81 148.448 115.687 148.028 116.977L138.285 146.962C137.625 148.995 139.14 151.072 141.27 151.072H152.01L134.888 190.268L171.975 146.895C173.715 144.855 172.268 141.712 169.59 141.712L169.583 141.72Z" fill="#FF623F"/>
</svg>
