<svg width="240" height="200" viewBox="0 0 240 200" fill="none" xmlns="http://www.w3.org/2000/svg">
<rect width="240" height="200" fill="white"/>
<g clip-path="url(#clip0_2_332)">
<g opacity="0.2">
<path d="M190.24 50.75H46.51C40.8436 50.75 36.25 55.3436 36.25 61.01V133.49C36.25 139.156 40.8436 143.75 46.51 143.75H190.24C195.906 143.75 200.5 139.156 200.5 133.49V61.01C200.5 55.3436 195.906 50.75 190.24 50.75Z" fill="#1F96C2"/>
</g>
<path d="M128.837 89.54C131.042 89.54 132.947 87.965 133.315 85.79C133.847 82.625 134.125 79.3775 134.125 76.0625C134.125 72.7475 133.84 69.5 133.315 66.335C132.947 64.16 131.042 62.585 128.837 62.585H125.207C123.295 62.585 121.6 61.385 120.955 59.585C120.422 58.1075 119.83 56.6675 119.162 55.2575C118.345 53.5325 118.705 51.485 120.055 50.135L122.62 47.57C124.18 46.01 124.412 43.5425 123.13 41.7425C119.335 36.44 114.692 31.79 109.39 28.0025C107.597 26.72 105.122 26.9525 103.562 28.5125L100.997 31.0775C99.6474 32.4275 97.5999 32.78 95.8749 31.97C94.4649 31.31 93.0249 30.71 91.5474 30.1775C89.7474 29.5325 88.5474 27.83 88.5474 25.925V22.295C88.5474 20.09 86.9724 18.185 84.7974 17.8175C81.6324 17.285 78.3849 17.0075 75.0699 17.0075C71.7549 17.0075 68.5074 17.2925 65.3424 17.8175C63.1674 18.185 61.5924 20.09 61.5924 22.295V25.925C61.5924 27.8375 60.3924 29.5325 58.5924 30.1775C57.1149 30.71 55.6749 31.3025 54.2649 31.97C52.5399 32.7875 50.4924 32.4275 49.1424 31.0775L46.5774 28.5125C45.0174 26.9525 42.5499 26.72 40.7499 28.0025C35.4474 31.7975 30.7974 36.44 27.0099 41.7425C25.7274 43.535 25.9599 46.01 27.5199 47.57L30.0849 50.135C31.4349 51.485 31.7874 53.5325 30.9774 55.2575C30.3174 56.6675 29.7174 58.1075 29.1849 59.585C28.5399 61.385 26.8374 62.585 24.9324 62.585H21.3024C19.0974 62.585 17.1924 64.16 16.8249 66.335C16.2924 69.5 16.0149 72.7475 16.0149 76.0625C16.0149 79.3775 16.2999 82.625 16.8249 85.79C17.1924 87.965 19.0974 89.54 21.3024 89.54H24.9324C26.8449 89.54 28.5399 90.74 29.1849 92.54C29.7174 94.0175 30.3099 95.4575 30.9774 96.8675C31.7949 98.5925 31.4349 100.64 30.0849 101.99L27.5199 104.555C25.9599 106.115 25.7274 108.582 27.0099 110.382C30.8049 115.685 35.4474 120.335 40.7499 124.123C42.5424 125.405 45.0174 125.172 46.5774 123.612L49.1424 121.048C50.4924 119.698 52.5399 119.345 54.2649 120.155C55.6749 120.815 57.1149 121.415 58.5924 121.947C60.3924 122.592 61.5924 124.295 61.5924 126.2V129.83C61.5924 132.035 63.1674 133.94 65.3424 134.308C68.5074 134.84 71.7549 135.118 75.0699 135.118C78.3849 135.118 81.6324 134.833 84.7974 134.308C86.9724 133.94 88.5474 132.035 88.5474 129.83V126.2C88.5474 124.288 89.7474 122.592 91.5474 121.947C93.0249 121.415 94.4649 120.822 95.8749 120.155C97.5999 119.337 99.6474 119.698 100.997 121.048L103.562 123.612C105.122 125.172 107.59 125.405 109.39 124.123C114.692 120.328 119.342 115.685 123.13 110.382C124.412 108.59 124.18 106.115 122.62 104.555L120.055 101.99C118.705 100.64 118.352 98.5925 119.162 96.8675C119.822 95.4575 120.422 94.0175 120.955 92.54C121.6 90.74 123.302 89.54 125.207 89.54H128.837ZM75.0624 96.455C63.7974 96.455 54.6699 87.3275 54.6699 76.0625C54.6699 64.7975 63.7974 55.67 75.0624 55.67C86.3274 55.67 95.4549 64.7975 95.4549 76.0625C95.4549 87.3275 86.3274 96.455 75.0624 96.455Z" fill="#5BA7D5"/>
<path d="M209.117 84.5H119.132C110.637 84.5 103.75 91.387 103.75 99.8825V167.368C103.75 175.863 110.637 182.75 119.132 182.75H209.117C217.613 182.75 224.5 175.863 224.5 167.368V99.8825C224.5 91.387 217.613 84.5 209.117 84.5Z" fill="#1A1A40"/>
<path d="M131.125 132.5C140.859 132.5 148.75 124.609 148.75 114.875C148.75 105.141 140.859 97.25 131.125 97.25C121.391 97.25 113.5 105.141 113.5 114.875C113.5 124.609 121.391 132.5 131.125 132.5Z" stroke="#3B3B5D" stroke-width="1.5" stroke-miterlimit="10"/>
<path d="M131.125 119C133.403 119 135.25 117.153 135.25 114.875C135.25 112.597 133.403 110.75 131.125 110.75C128.847 110.75 127 112.597 127 114.875C127 117.153 128.847 119 131.125 119Z" fill="#3B3B5D"/>
<path d="M197.125 119C199.403 119 201.25 117.153 201.25 114.875C201.25 112.597 199.403 110.75 197.125 110.75C194.847 110.75 193 112.597 193 114.875C193 117.153 194.847 119 197.125 119Z" fill="#3B3B5D"/>
<path d="M197.125 132.5C206.859 132.5 214.75 124.609 214.75 114.875C214.75 105.141 206.859 97.25 197.125 97.25C187.391 97.25 179.5 105.141 179.5 114.875C179.5 124.609 187.391 132.5 197.125 132.5Z" stroke="#3B3B5D" stroke-width="1.5" stroke-miterlimit="10"/>
<path d="M181.75 68H147.25C144.765 68 142.75 70.0147 142.75 72.5C142.75 74.9853 144.765 77 147.25 77H181.75C184.235 77 186.25 74.9853 186.25 72.5C186.25 70.0147 184.235 68 181.75 68Z" fill="#1A1A40"/>
<path d="M169 74.75C169 72.2647 166.985 70.25 164.5 70.25C162.015 70.25 160 72.2647 160 74.75V109.25C160 111.735 162.015 113.75 164.5 113.75C166.985 113.75 169 111.735 169 109.25V74.75Z" fill="#1A1A40"/>
<path d="M197.335 140H130.915C129.167 140 127.75 141.417 127.75 143.165V169.085C127.75 170.833 129.167 172.25 130.915 172.25H197.335C199.083 172.25 200.5 170.833 200.5 169.085V143.165C200.5 141.417 199.083 140 197.335 140Z" fill="#D8E9F2"/>
<path d="M168.25 113C168.25 110.929 166.571 109.25 164.5 109.25C162.429 109.25 160.75 110.929 160.75 113V123.5C160.75 125.571 162.429 127.25 164.5 127.25C166.571 127.25 168.25 125.571 168.25 123.5V113Z" fill="#3B3B5D"/>
<path d="M137.5 147.5H165.415" stroke="#1F96C2" stroke-width="1.5" stroke-miterlimit="10" stroke-linecap="round"/>
<path d="M137.5 153.5H178" stroke="#1F96C2" stroke-width="1.5" stroke-miterlimit="10" stroke-linecap="round"/>
<path d="M137.5 159.5H165.415" stroke="#1F96C2" stroke-width="1.5" stroke-miterlimit="10" stroke-linecap="round"/>
<path d="M137.5 165.5H188.5" stroke="#1F96C2" stroke-width="1.5" stroke-miterlimit="10" stroke-linecap="round"/>
<path d="M140.853 40.6025C154.323 27.1325 176.17 27.1325 189.64 40.6025" stroke="#FF623F" stroke-width="6" stroke-linecap="round" stroke-linejoin="round"/>
<path d="M150.4 50.15C158.597 41.9525 171.895 41.9525 180.1 50.15" stroke="#FF623F" stroke-width="6" stroke-linecap="round" stroke-linejoin="round"/>
<path d="M159.948 59.6975C162.88 56.765 167.628 56.765 170.553 59.6975" stroke="#FF623F" stroke-width="6" stroke-linecap="round" stroke-linejoin="round"/>
<path d="M75.0624 96.455C86.3249 96.455 95.4549 87.325 95.4549 76.0625C95.4549 64.8 86.3249 55.67 75.0624 55.67C63.8 55.67 54.6699 64.8 54.6699 76.0625C54.6699 87.325 63.8 96.455 75.0624 96.455Z" fill="white"/>
<path d="M75.0625 108.125C92.7701 108.125 107.125 93.7701 107.125 76.0625C107.125 58.3549 92.7701 44 75.0625 44C57.3549 44 43 58.3549 43 76.0625C43 93.7701 57.3549 108.125 75.0625 108.125Z" stroke="white" stroke-width="0.75" stroke-miterlimit="10"/>
</g>
<defs>
<clipPath id="clip0_2_332">
<rect width="208.5" height="165.75" fill="white" transform="translate(16 17)"/>
</clipPath>
</defs>
</svg>
