<?xml version="1.0" encoding="UTF-8" standalone="no"?>
<!-- Created with Inkscape (http://www.inkscape.org/) -->

<svg
   width="89.889435mm"
   height="49.8255mm"
   viewBox="0 0 89.889435 49.8255"
   version="1.1"
   id="svg1"
   inkscape:version="1.3 (0e150ed6c4, 2023-07-21)"
   sodipodi:docname="Rotorflight_OL2.svg"
   xmlns:inkscape="http://www.inkscape.org/namespaces/inkscape"
   xmlns:sodipodi="http://sodipodi.sourceforge.net/DTD/sodipodi-0.dtd"
   xmlns="http://www.w3.org/2000/svg"
   xmlns:svg="http://www.w3.org/2000/svg">
  <sodipodi:namedview
     id="namedview1"
     pagecolor="#ffffff"
     bordercolor="#666666"
     borderopacity="1.0"
     inkscape:showpageshadow="2"
     inkscape:pageopacity="0.0"
     inkscape:pagecheckerboard="0"
     inkscape:deskcolor="#d1d1d1"
     inkscape:document-units="mm"
     inkscape:zoom="1.3843855"
     inkscape:cx="281.71343"
     inkscape:cy="226.45426"
     inkscape:window-width="1920"
     inkscape:window-height="991"
     inkscape:window-x="-9"
     inkscape:window-y="-9"
     inkscape:window-maximized="1"
     inkscape:current-layer="layer1" />
  <defs
     id="defs1" />
  <g
     inkscape:label="Layer 1"
     inkscape:groupmode="layer"
     id="layer1"
     transform="translate(-0.43107321,-0.56993188)">
    <g
       id="g1"
       transform="translate(-59.629344,-20.067568)"
       style="fill:#ffffff">
      <path
         id="path3164"
         d="m 109.29441,57.364496 c 0.0538,0.182887 -2.76389,1.533503 -7.20967,4.444805 -1.76418,1.156648 -5.060343,3.389344 -7.627505,4.924012 -2.083443,1.24989 -4.571386,2.644818 -7.263098,3.356858 -1.038766,0.275662 -2.158264,0.441107 -3.306894,0.345612 -1.057112,-0.232641 -2.137942,-0.709538 -3.120009,-1.494102 0.472043,-1.819925 1.025827,-3.659115 1.670557,-5.491249 2.546947,-7.237678 6.026589,-13.003937 10.013247,-17.230324 0,0 2e-6,0 2e-6,0 3.956398,-2.119093 7.350982,-3.087767 10.42478,-3.15707 1.39928,-0.02323 2.76418,0.139608 3.74622,0.277423 2.29778,0.321338 3.59122,0.527106 3.59026,0.612671 -0.002,0.165379 -1.31377,0.200017 -3.6381,0.08783 -0.96625,-0.04603 -2.34494,-0.108821 -3.66603,-0.0077 -2.921492,0.206202 -6.047803,1.228935 -9.814415,3.330714 -10e-7,0 -10e-7,0 -2e-6,0 -3.821142,3.965029 -7.163171,9.278619 -9.678558,16.012031 -0.636801,1.704648 -1.190146,3.420054 -1.668325,5.122541 0.664474,0.342646 1.452383,0.451322 2.243236,0.387511 0.970746,0.0981 1.967156,-0.04336 2.929788,-0.277537 2.505878,-0.612063 4.936332,-1.920317 7.024333,-3.091643 2.946979,-1.659082 5.526121,-3.312335 7.734923,-4.607276 4.59259,-2.695494 7.53469,-3.818867 7.61526,-3.545088 z"
         style="font-style:normal;font-weight:normal;font-size:43.7402px;line-height:1.25;font-family:sans-serif;display:inline;fill:#ffffff;fill-opacity:1;stroke:none;stroke-width:0;stroke-linecap:butt;stroke-linejoin:miter;stroke-miterlimit:4;stroke-dasharray:none;stroke-opacity:1" />
      <path
         id="path3166"
         d="m 111.1911,47.290118 c -0.2531,-0.607209 7.26616,-5.531416 16.78405,-10.991534 9.51789,-5.460119 17.44797,-9.398714 17.70107,-8.791506 0.25309,0.607208 -7.26616,5.531415 -16.78405,10.991534 -9.51789,5.460119 -17.44797,9.398713 -17.70107,8.791506 z"
         style="font-style:normal;font-weight:normal;font-size:43.7402px;line-height:1.25;font-family:sans-serif;display:inline;fill:#ffffff;fill-opacity:1;stroke:none;stroke-width:0.0598232px;stroke-linecap:butt;stroke-linejoin:miter;stroke-opacity:1" />
      <path
         id="path3168"
         d="m 95.442619,69.307463 c -0.328197,-0.758945 4.627661,-3.745317 10.839401,-6.9771 2.21646,-1.153155 4.30166,-2.214973 6.06697,-3.147744 -3.32749,0.573548 -5.64136,0.480129 -5.64136,-0.05605 0,-0.529672 2.35024,-0.636095 6.04087,-0.05604 -1.67903,1.11716 -3.67394,2.483667 -5.83004,3.932884 -6.10463,4.103208 -11.149286,7.059197 -11.475841,6.30405 z"
         style="font-style:normal;font-weight:normal;font-size:43.7402px;line-height:1.25;font-family:sans-serif;display:inline;fill:#ffffff;fill-opacity:1;stroke:none;stroke-width:0.0598232px;stroke-linecap:butt;stroke-linejoin:miter;stroke-opacity:1" />
      <path
         id="path3170"
         d="M 60.062145,59.028681 C 59.876704,58.585811 74.642075,49.630574 93.020563,39.039315 111.39905,28.448057 126.46543,20.211684 126.65087,20.654555 126.83631,21.097427 112.07094,30.052662 93.692451,40.643921 75.313963,51.23518 60.247586,59.471552 60.062145,59.028681 Z"
         style="font-style:normal;font-weight:normal;font-size:43.7402px;line-height:1.25;font-family:sans-serif;display:inline;fill:#ffffff;fill-opacity:1;stroke:none;stroke-width:0.0598232px;stroke-linecap:butt;stroke-linejoin:miter;stroke-opacity:1" />
      <path
         id="path3172"
         d="m 96.647961,65.324355 c 0.0566,-0.205848 0.748074,-0.12862 1.543465,0.172384 0.79539,0.301004 1.394987,0.712363 1.338385,0.918212 -0.0566,0.205849 -0.748074,0.128621 -1.543465,-0.172383 -0.795391,-0.301004 -1.394987,-0.712364 -1.338385,-0.918213 z"
         style="font-style:normal;font-weight:normal;font-size:43.7402px;line-height:1.25;font-family:sans-serif;display:inline;fill:#ffffff;fill-opacity:1;stroke:none;stroke-width:0.0598232px;stroke-linecap:butt;stroke-linejoin:miter;stroke-opacity:1" />
      <path
         id="path3174"
         d="m 110.12758,44.05772 c 0.18751,-0.109988 1.13493,1.887623 2.33659,4.885389 0,0 1e-5,0 1e-5,0 -0.51622,0.484432 -1.07123,1.037656 -1.57923,1.649146 -0.2894,0.348357 -0.55269,0.702315 -0.78917,1.067483 -0.45079,0.652037 -0.76359,1.302581 -0.90645,1.965529 -0.14388,0.633203 -0.1252,1.290636 -0.0743,1.811776 0,0 0,0 0,0 0.11537,1.167834 0.32703,1.872488 0.1794,1.927453 -0.0554,0.02062 -0.44405,-0.59207 -0.72136,-1.803746 0,0 0,0 0,0 -0.12932,-0.564224 -0.21619,-1.308383 -0.0926,-2.116614 0.13396,-0.827921 0.46941,-1.640041 0.97395,-2.387143 0.2426,-0.336492 0.51311,-0.651516 0.80974,-0.950404 0.52192,-0.525913 1.08708,-0.96347 1.61724,-1.33701 0,0 0,0 0,0 -1.17019,-2.571171 -1.94259,-4.601104 -1.75377,-4.711859 z"
         style="font-style:normal;font-weight:normal;font-size:43.7402px;line-height:1.25;font-family:sans-serif;display:inline;fill:#ffffff;fill-opacity:1;stroke:none;stroke-width:0.0598232px;stroke-linecap:butt;stroke-linejoin:miter;stroke-opacity:1" />
      <path
         id="path3176"
         d="m 94.602777,41.113109 c 0.159752,-0.09371 0.55585,0.4554 0.884146,1.225684 0.328297,0.770285 0.465088,1.471495 0.305336,1.565202 -0.159752,0.09371 -0.55585,-0.4554 -0.884147,-1.225685 -0.328296,-0.770284 -0.465087,-1.471495 -0.305335,-1.565201 z"
         style="font-style:normal;font-weight:normal;font-size:43.7402px;line-height:1.25;font-family:sans-serif;display:inline;fill:#ffffff;fill-opacity:1;stroke:none;stroke-width:0.0598232px;stroke-linecap:butt;stroke-linejoin:miter;stroke-opacity:1" />
      <path
         id="path3178"
         d="m 140.41921,25.647108 c 0.10102,0.07691 -0.60157,1.124796 -0.60407,2.8221 -0.0146,0.540558 0.10197,1.183179 0.0239,1.978221 0.34444,0.543647 0.73168,1.168331 1.1588,1.675893 0.35437,0.457797 0.7687,0.880078 1.2368,1.24581 0.11289,0.0882 0.22735,0.17189 0.34304,0.25105 0,0 0,0 0,0 1.69458,1.173095 3.72165,1.684173 4.99983,2.006711 1.36357,0.344085 2.20265,0.545095 2.18749,0.690571 -0.0116,0.111702 -0.87209,0.155158 -2.27869,-0.0182 -1.33942,-0.165077 -3.43224,-0.566323 -5.32669,-1.832679 0,0 0,0 0,0 -0.13101,-0.08855 -0.26042,-0.182639 -0.38788,-0.282271 -0.5287,-0.413282 -0.99236,-0.897315 -1.38404,-1.425774 -0.48991,-0.705088 -0.89242,-1.479841 -1.22408,-2.122437 0.0807,-0.726096 -0.0118,-1.503448 0.0423,-2.212991 0.21124,-2.114976 1.27086,-2.732145 1.21325,-2.776005 z"
         style="font-style:normal;font-weight:normal;font-size:43.7402px;line-height:1.25;font-family:sans-serif;display:inline;fill:#ffffff;fill-opacity:1;stroke:none;stroke-width:0.0598232px;stroke-linecap:butt;stroke-linejoin:miter;stroke-opacity:1" />
      <path
         id="path3180"
         d="m 141.55164,26.072073 c -2.19741,-2.052391 -2.52212,-2.849319 -0.72481,-1.778853 1.79731,1.070457 5.03941,3.604959 7.23681,5.65735 2.19741,2.052392 2.52213,2.849318 0.72481,1.778851 -1.7973,-1.070456 -5.0394,-3.604957 -7.23681,-5.657348 z"
         style="font-style:normal;font-weight:normal;font-size:43.7402px;line-height:1.25;font-family:sans-serif;display:inline;fill:#ffffff;fill-opacity:1;stroke:none;stroke-width:0.0687488px;stroke-linecap:butt;stroke-linejoin:miter;stroke-opacity:1" />
    </g>
  </g>
</svg>
