<svg width="240" height="420" viewBox="0 0 240 420" fill="none" xmlns="http://www.w3.org/2000/svg">
<rect width="240" height="420" fill="white"/>
<g opacity="0.2">
<path d="M130.435 207.891C134.589 207.891 138.444 205.795 140.738 202.329C154.201 181.995 167.387 148.194 167.387 115.058C167.395 62.7268 130.323 8 119.579 8C108.836 8 71.7642 62.7268 71.7642 115.058C71.7642 148.201 84.9507 182.003 98.4137 202.329C100.707 205.795 104.57 207.891 108.716 207.891H130.428H130.435Z" fill="#1F96C2"/>
</g>
<path d="M117.944 110.97L106.595 139.771C105.915 141.493 108.014 142.968 109.397 141.733L118.414 133.715C119.079 133.123 120.08 133.123 120.745 133.715L129.763 141.733C131.145 142.96 133.244 141.493 132.565 139.771L121.216 110.97C120.633 109.488 118.534 109.488 117.944 110.97Z" fill="white"/>
<path d="M119.58 177.945C91.5629 177.945 68.7759 155.111 68.7759 127.036C68.7759 98.9618 91.5629 76.1278 119.58 76.1278C147.596 76.1278 170.383 98.9618 170.383 127.036C170.383 155.111 147.596 177.945 119.58 177.945ZM119.58 83.6143C95.6869 83.6143 76.247 103.094 76.247 127.036C76.247 150.979 95.6869 170.459 119.58 170.459C143.472 170.459 162.912 150.979 162.912 127.036C162.912 103.094 143.472 83.6143 119.58 83.6143Z" fill="#1F96C2"/>
<g opacity="0.2">
<path d="M138.258 306.714C136.606 306.714 135.269 308.054 135.269 309.709V350.136H125.557V207.891H113.603V372.596C113.603 375.905 116.277 378.585 119.58 378.585C122.882 378.585 125.557 375.905 125.557 372.596V368.853H135.269V408.532C135.269 410.186 136.606 411.526 138.258 411.526C139.909 411.526 141.246 410.186 141.246 408.532V309.709C141.246 308.054 139.909 306.714 138.258 306.714Z" fill="#1F96C2"/>
</g>
<path d="M130.81 92.6822L130.81 59.4206C130.81 58.0838 129.724 57 128.385 57L110.028 57C108.688 57 107.602 58.0838 107.602 59.4206L107.602 92.6822C107.602 94.0191 108.688 95.1028 110.028 95.1028L128.385 95.1028C129.724 95.1028 130.81 94.0191 130.81 92.6822Z" fill="#1A1A40"/>
<path d="M54.9736 138.656L88.2351 138.656C89.572 138.656 90.6558 137.57 90.6558 136.23L90.6558 117.873C90.6558 116.533 89.572 115.447 88.2351 115.447L54.9736 115.447C53.6367 115.447 52.5529 116.533 52.5529 117.873L52.5529 136.23C52.5529 137.57 53.6367 138.656 54.9736 138.656Z" fill="#1A1A40"/>
<path d="M114.728 83V80.144H118.544V68.912H115.328V66.728C117.104 66.392 118.328 65.936 119.456 65.24H122.072V80.144H125.408V83H114.728Z" fill="white"/>
<path d="M65.1961 134.246V132.206C70.0201 127.886 72.8761 124.55 72.8761 121.814C72.8761 120.014 71.8921 118.934 70.2121 118.934C68.9161 118.934 67.8361 119.774 66.9481 120.758L65.0281 118.838C66.6601 117.11 68.2441 116.15 70.6681 116.15C74.0281 116.15 76.2601 118.31 76.2601 121.622C76.2601 124.838 73.5961 128.294 70.3561 131.462C71.2441 131.366 72.4201 131.27 73.2361 131.27H77.1001V134.246H65.1961Z" fill="white"/>
</svg>
