<svg width="480" height="420" viewBox="0 0 480 420" fill="none" xmlns="http://www.w3.org/2000/svg">
<rect width="480" height="420" fill="white"/>
<g opacity="0.2">
<path d="M105.934 207.891C110.088 207.891 113.943 205.795 116.237 202.329C129.7 181.995 142.887 148.194 142.887 115.058C142.894 62.7268 105.822 8 95.0789 8C84.3354 8 47.2635 62.7268 47.2635 115.058C47.2635 148.201 60.4501 182.003 73.9131 202.329C76.2068 205.795 80.0693 207.891 84.2158 207.891H105.927H105.934Z" fill="#1F96C2"/>
</g>
<path d="M93.4427 110.97L82.094 139.771C81.4142 141.493 83.5136 142.968 84.8957 141.733L93.9134 133.715C94.5783 133.123 95.5795 133.123 96.2444 133.715L105.262 141.733C106.644 142.96 108.744 141.493 108.064 139.771L96.7151 110.97C96.1323 109.488 94.0329 109.488 93.4427 110.97Z" fill="white"/>
<path d="M95.0789 177.945C67.0621 177.945 44.2751 155.111 44.2751 127.036C44.2751 98.9618 67.0621 76.1278 95.0789 76.1278C123.096 76.1278 145.883 98.9618 145.883 127.036C145.883 155.111 123.096 177.945 95.0789 177.945ZM95.0789 83.6143C71.1862 83.6143 51.7463 103.094 51.7463 127.036C51.7463 150.979 71.1862 170.459 95.0789 170.459C118.972 170.459 138.412 150.979 138.412 127.036C138.412 103.094 118.972 83.6143 95.0789 83.6143Z" fill="#1F96C2"/>
<g opacity="0.2">
<path d="M113.757 306.714C112.106 306.714 110.768 308.054 110.768 309.709V350.136H101.056V207.891H89.1019V372.596C89.1019 375.905 91.7766 378.585 95.0788 378.585C98.3811 378.585 101.056 375.905 101.056 372.596V368.853H110.768V408.532C110.768 410.186 112.106 411.526 113.757 411.526C115.408 411.526 116.745 410.186 116.745 408.532V309.709C116.745 308.054 115.408 306.714 113.757 306.714Z" fill="#1F96C2"/>
</g>
<path d="M106.31 92.6822L106.31 59.4206C106.31 58.0838 105.224 57 103.884 57L85.5268 57C84.1872 57 83.1012 58.0838 83.1012 59.4206L83.1012 92.6822C83.1012 94.0191 84.1872 95.1028 85.5268 95.1028L103.884 95.1028C105.224 95.1028 106.31 94.0191 106.31 92.6822Z" fill="#1A1A40"/>
<path d="M133.761 128.733L117.13 157.598C116.462 158.758 116.859 160.242 118.017 160.911L133.881 170.09C135.039 170.76 136.52 170.362 137.188 169.202L153.819 140.337C154.487 139.177 154.091 137.694 152.933 137.024L137.068 127.845C135.91 127.176 134.43 127.573 133.761 128.733Z" fill="#1A1A40"/>
<path d="M53.4605 128.489L37.5956 137.667C36.4378 138.337 36.0412 139.821 36.7096 140.981L53.3404 169.846C54.0088 171.006 55.4892 171.403 56.647 170.734L72.512 161.555C73.6697 160.885 74.0664 159.402 73.398 158.242L56.7672 129.377C56.0988 128.217 54.6183 127.819 53.4605 128.489Z" fill="#1A1A40"/>
<g opacity="0.2">
<path d="M405.527 207.891C409.681 207.891 413.536 205.795 415.83 202.329C429.293 181.995 442.48 148.194 442.48 115.058C442.487 62.7268 405.415 8 394.672 8C383.928 8 346.856 62.7268 346.856 115.058C346.856 148.201 360.043 182.003 373.506 202.329C375.8 205.795 379.662 207.891 383.809 207.891H405.52H405.527Z" fill="#1F96C2"/>
</g>
<path d="M393.036 110.97L381.687 139.771C381.007 141.493 383.106 142.968 384.489 141.733L393.506 133.715C394.171 133.123 395.172 133.123 395.837 133.715L404.855 141.733C406.237 142.96 408.337 141.493 407.657 139.771L396.308 110.97C395.725 109.488 393.626 109.488 393.036 110.97Z" fill="white"/>
<path d="M395.419 76.1278C423.436 76.1278 446.223 98.9618 446.223 127.036C446.223 155.111 423.436 177.945 395.419 177.945C367.402 177.945 344.615 155.111 344.615 127.036C344.615 98.9618 367.402 76.1278 395.419 76.1278ZM395.419 170.459C419.312 170.459 438.752 150.979 438.752 127.036C438.752 103.094 419.312 83.6143 395.419 83.6143C371.526 83.6143 352.086 103.094 352.086 127.036C352.086 150.979 371.526 170.459 395.419 170.459Z" fill="#1F96C2"/>
<g opacity="0.2">
<path d="M413.35 306.714C411.698 306.714 410.361 308.054 410.361 309.709V350.136H400.649V207.891H388.695V372.596C388.695 375.905 391.369 378.585 394.672 378.585C397.974 378.585 400.649 375.905 400.649 372.596V368.853H410.361V408.532C410.361 410.186 411.698 411.526 413.35 411.526C415.001 411.526 416.338 410.186 416.338 408.532V309.709C416.338 308.054 415.001 306.714 413.35 306.714Z" fill="#1F96C2"/>
</g>
<path d="M407.396 194.682L407.396 161.421C407.396 160.084 406.31 159 404.971 159L386.614 159C385.274 159 384.188 160.084 384.188 161.421L384.188 194.682C384.188 196.019 385.274 197.103 386.614 197.103L404.971 197.103C406.31 197.103 407.396 196.019 407.396 194.682Z" fill="#1A1A40"/>
<path d="M353.307 84.8767L336.676 113.741C336.008 114.902 336.404 116.385 337.562 117.055L353.427 126.234C354.585 126.903 356.065 126.506 356.734 125.346L373.364 96.4809C374.033 95.3207 373.636 93.8372 372.478 93.1674L356.613 83.9888C355.456 83.319 353.975 83.7165 353.307 84.8767Z" fill="#1A1A40"/>
<path d="M433.852 83.3439L417.987 92.5224C416.829 93.1923 416.433 94.6758 417.101 95.8359L433.732 124.701C434.4 125.861 435.881 126.258 437.039 125.589L452.904 116.41C454.061 115.74 454.458 114.257 453.79 113.097L437.159 84.2317C436.49 83.0716 435.01 82.6741 433.852 83.3439Z" fill="#1A1A40"/>
<path d="M90.2267 83V80.144H94.0427V68.912H90.8267V66.728C92.6027 66.392 93.8267 65.936 94.9547 65.24H97.5707V80.144H100.907V83H90.2267Z" fill="white"/>
<path d="M391.227 188.475V185.619H395.043V174.387H391.827V172.203C393.603 171.867 394.827 171.411 395.955 170.715H398.571V185.619H401.907V188.475H391.227Z" fill="white"/>
<path d="M48.6933 157.17V155.13C53.5173 150.81 56.3733 147.474 56.3733 144.738C56.3733 142.938 55.3893 141.858 53.7093 141.858C52.4133 141.858 51.3333 142.698 50.4453 143.682L48.5253 141.762C50.1573 140.034 51.7413 139.074 54.1653 139.074C57.5253 139.074 59.7573 141.234 59.7573 144.546C59.7573 147.762 57.0933 151.218 53.8533 154.386C54.7413 154.29 55.9173 154.194 56.7333 154.194H60.5973V157.17H48.6933Z" fill="white"/>
<path fill-rule="evenodd" clip-rule="evenodd" d="M47.6933 158.17V154.683L48.0262 154.385C50.4254 152.236 52.2897 150.372 53.549 148.731C54.8239 147.07 55.3733 145.771 55.3733 144.738C55.3733 144.013 55.1768 143.562 54.9358 143.3C54.705 143.05 54.3276 142.858 53.7093 142.858C52.8596 142.858 52.0336 143.414 51.1877 144.352L50.4825 145.133L47.131 141.782L47.7983 141.075C49.5545 139.216 51.3843 138.074 54.1653 138.074C56.0622 138.074 57.7255 138.687 58.9195 139.852C60.1162 141.019 60.7573 142.658 60.7573 144.546C60.7573 146.424 59.9838 148.283 58.8609 150.025C58.1671 151.102 57.3198 152.165 56.3875 153.198C56.5074 153.195 56.6231 153.194 56.7333 153.194H61.5973V158.17H47.6933ZM55.4033 154.248C54.8699 154.284 54.3215 154.335 53.8533 154.386C54.227 154.02 54.593 153.651 54.9482 153.279C57.6724 150.424 59.7573 147.391 59.7573 144.546C59.7573 141.234 57.5253 139.074 54.1653 139.074C52.0933 139.074 50.635 139.775 49.2359 141.058C49.2036 141.088 49.1713 141.118 49.139 141.148C48.934 141.34 48.73 141.545 48.5253 141.762L50.4453 143.682C50.6614 143.442 50.8889 143.211 51.1282 142.999C51.8718 142.339 52.7287 141.858 53.7093 141.858C55.3893 141.858 56.3733 142.938 56.3733 144.738C56.3733 147.474 53.5173 150.81 48.6933 155.13V157.17H60.5973V154.194H56.7333C56.3476 154.194 55.8814 154.215 55.4033 154.248Z" fill="#1A1A40"/>
<path d="M348.084 113V110.96C352.908 106.64 355.764 103.304 355.764 100.568C355.764 98.768 354.78 97.688 353.1 97.688C351.804 97.688 350.724 98.528 349.836 99.512L347.916 97.592C349.548 95.864 351.132 94.904 353.556 94.904C356.916 94.904 359.148 97.064 359.148 100.376C359.148 103.592 356.484 107.048 353.244 110.216C354.132 110.12 355.308 110.024 356.124 110.024H359.988V113H348.084Z" fill="white"/>
<path d="M134.706 157.506C131.898 157.506 130.002 156.45 128.754 155.034L130.41 152.802C131.466 153.834 132.762 154.626 134.37 154.626C136.17 154.626 137.394 153.738 137.394 152.154C137.394 150.402 136.362 149.322 132.498 149.322V146.778C135.762 146.778 136.818 145.65 136.818 144.066C136.818 142.674 135.954 141.858 134.442 141.834C133.17 141.858 132.138 142.458 131.082 143.418L129.282 141.258C130.818 139.914 132.522 139.074 134.61 139.074C138.042 139.074 140.37 140.754 140.37 143.802C140.37 145.722 139.29 147.114 137.394 147.858V147.978C139.41 148.53 140.946 150.018 140.946 152.346C140.946 155.61 138.09 157.506 134.706 157.506Z" fill="white"/>
<path d="M436.463 113.336C433.655 113.336 431.759 112.28 430.511 110.864L432.167 108.632C433.223 109.664 434.519 110.456 436.127 110.456C437.927 110.456 439.151 109.568 439.151 107.984C439.151 106.232 438.119 105.152 434.255 105.152V102.608C437.519 102.608 438.575 101.48 438.575 99.896C438.575 98.504 437.711 97.688 436.199 97.664C434.927 97.688 433.895 98.288 432.839 99.248L431.039 97.088C432.575 95.744 434.279 94.904 436.367 94.904C439.799 94.904 442.127 96.584 442.127 99.632C442.127 101.552 441.047 102.944 439.151 103.688V103.808C441.167 104.36 442.703 105.848 442.703 108.176C442.703 111.44 439.847 113.336 436.463 113.336Z" fill="white"/>
</svg>
