<svg width="240" height="420" viewBox="0 0 240 420" fill="none" xmlns="http://www.w3.org/2000/svg">
<rect width="240" height="420" fill="white"/>
<g opacity="0.2">
<path d="M130.435 207.891C134.589 207.891 138.444 205.795 140.738 202.329C154.201 181.995 167.387 148.194 167.387 115.058C167.395 62.7268 130.323 8 119.579 8C108.836 8 71.7642 62.7268 71.7642 115.058C71.7642 148.201 84.9507 182.003 98.4137 202.329C100.707 205.795 104.57 207.891 108.716 207.891H130.428H130.435Z" fill="#1F96C2"/>
</g>
<path d="M117.944 110.97L106.595 139.771C105.915 141.493 108.014 142.968 109.397 141.733L118.414 133.715C119.079 133.123 120.08 133.123 120.745 133.715L129.763 141.733C131.145 142.96 133.244 141.493 132.565 139.771L121.216 110.97C120.633 109.488 118.534 109.488 117.944 110.97Z" fill="white"/>
<path d="M119.58 177.945C91.5629 177.945 68.7759 155.111 68.7759 127.036C68.7759 98.9618 91.5629 76.1278 119.58 76.1278C147.596 76.1278 170.383 98.9618 170.383 127.036C170.383 155.111 147.596 177.945 119.58 177.945ZM119.58 83.6143C95.6869 83.6143 76.247 103.094 76.247 127.036C76.247 150.979 95.6869 170.459 119.58 170.459C143.472 170.459 162.912 150.979 162.912 127.036C162.912 103.094 143.472 83.6143 119.58 83.6143Z" fill="#1F96C2"/>
<g opacity="0.2">
<path d="M138.258 306.714C136.606 306.714 135.269 308.054 135.269 309.709V350.136H125.557V207.891H113.603V372.596C113.603 375.905 116.277 378.585 119.58 378.585C122.882 378.585 125.557 375.905 125.557 372.596V368.853H135.269V408.532C135.269 410.186 136.606 411.526 138.258 411.526C139.909 411.526 141.246 410.186 141.246 408.532V309.709C141.246 308.054 139.909 306.714 138.258 306.714Z" fill="#1F96C2"/>
</g>
<path d="M98.642 100.231L75.1225 76.7117C74.1772 75.7663 72.643 75.7679 71.6957 76.7152L58.7153 89.6956C57.768 90.6429 57.7664 92.1771 58.7117 93.1225L82.2312 116.642C83.1765 117.587 84.7108 117.586 85.658 116.638L98.6385 103.658C99.5857 102.711 99.5873 101.176 98.642 100.231Z" fill="#1A1A40"/>
<path d="M158.453 117.193L181.972 93.6735C182.918 92.7282 182.916 91.1939 181.969 90.2466L168.988 77.2662C168.041 76.319 166.507 76.3174 165.562 77.2627L142.042 100.782C141.097 101.727 141.098 103.262 142.046 104.209L155.026 117.189C155.973 118.137 157.508 118.138 158.453 117.193Z" fill="#1A1A40"/>
<path d="M74.2268 105V102.144H78.0428V90.912H74.8268V88.728C76.6028 88.392 77.8268 87.936 78.9548 87.24H81.5708V102.144H84.9068V105H74.2268Z" fill="white"/>
<path d="M156.291 105V102.96C161.115 98.64 163.971 95.304 163.971 92.568C163.971 90.768 162.987 89.688 161.307 89.688C160.011 89.688 158.931 90.528 158.043 91.512L156.123 89.592C157.755 87.864 159.339 86.904 161.763 86.904C165.123 86.904 167.355 89.064 167.355 92.376C167.355 95.592 164.691 99.048 161.451 102.216C162.339 102.12 163.515 102.024 164.331 102.024H168.195V105H156.291Z" fill="white"/>
</svg>
