<svg width="240" height="200" viewBox="0 0 240 200" fill="none" xmlns="http://www.w3.org/2000/svg">
<rect width="240" height="200" fill="white"/>
<g clip-path="url(#clip0_2_326)">
<g opacity="0.2">
<path d="M193.99 35.125H50.26C44.5936 35.125 40 39.7186 40 45.385V149.365C40 155.031 44.5936 159.625 50.26 159.625H193.99C199.656 159.625 204.25 155.031 204.25 149.365V45.385C204.25 39.7186 199.656 35.125 193.99 35.125Z" fill="#1F96C2"/>
</g>
<path d="M142.75 98.125H207.25" stroke="#1F96C2" stroke-width="1.5" stroke-miterlimit="10" stroke-linecap="round"/>
<path d="M142.75 118.375H207.25" stroke="#1F96C2" stroke-width="1.5" stroke-miterlimit="10" stroke-linecap="round"/>
<path d="M142.75 138.625H207.25" stroke="#1F96C2" stroke-width="1.5" stroke-miterlimit="10" stroke-linecap="round"/>
<path d="M124 32.875H28V104.875H124V32.875Z" fill="#1A1A40"/>
<path d="M37.7275 23.875H114.272C119.642 23.875 124 28.2325 124 33.6025V41.875H28V33.6025C28 28.2325 32.3575 23.875 37.7275 23.875Z" fill="#FF623F"/>
<path d="M28 107.875H124V122.853C124 127.42 120.295 131.125 115.728 131.125H36.2725C31.705 131.125 28 127.42 28 122.853V107.875Z" fill="#FF623F"/>
<path d="M52.375 114.625H39.625C36.9326 114.625 34.75 116.808 34.75 119.5C34.75 122.192 36.9326 124.375 39.625 124.375H52.375C55.0674 124.375 57.25 122.192 57.25 119.5C57.25 116.808 55.0674 114.625 52.375 114.625Z" fill="#1A1A40"/>
<path d="M81.625 114.625H68.875C66.1826 114.625 64 116.808 64 119.5C64 122.192 66.1826 124.375 68.875 124.375H81.625C84.3174 124.375 86.5 122.192 86.5 119.5C86.5 116.808 84.3174 114.625 81.625 114.625Z" fill="#1A1A40"/>
<path d="M110.875 114.625H98.125C95.4326 114.625 93.25 116.808 93.25 119.5C93.25 122.192 95.4326 124.375 98.125 124.375H110.875C113.567 124.375 115.75 122.192 115.75 119.5C115.75 116.808 113.567 114.625 110.875 114.625Z" fill="#1A1A40"/>
<path d="M38.5 58H113.5" stroke="#3B3B5D" stroke-width="1.5" stroke-miterlimit="10"/>
<path d="M38.5 70.75H113.5" stroke="#3B3B5D" stroke-width="1.5" stroke-miterlimit="10"/>
<path d="M38.5 83.5H113.5" stroke="#3B3B5D" stroke-width="1.5" stroke-miterlimit="10"/>
<path d="M82 131.125H68.5V167.125H82V131.125Z" fill="#3B3B5D"/>
<path d="M154.008 78.94L152.478 66.6475C152.448 66.5275 152.365 66.46 152.245 66.46H151.593C151.465 66.46 151.375 66.535 151.315 66.6925L149.83 78.85C149.8 79.0075 149.733 79.135 149.62 79.2475C149.508 79.36 149.38 79.4125 149.223 79.4125H142.818C142.66 79.4125 142.54 79.36 142.443 79.2475C142.353 79.1425 142.315 79.0075 142.353 78.85L146.2 47.485C146.23 47.3275 146.298 47.2 146.41 47.0875C146.515 46.9825 146.65 46.9225 146.808 46.9225H156.505C158.883 46.9225 160.765 47.68 162.145 49.195C163.518 50.71 164.208 52.735 164.208 55.27C164.208 56.0125 164.178 56.5825 164.118 56.9875C163.9 58.72 163.398 60.2725 162.61 61.6525C161.823 63.0325 160.825 64.135 159.618 64.9675C159.558 64.9975 159.513 65.035 159.475 65.08C159.438 65.125 159.445 65.1775 159.475 65.245L161.658 78.745V78.835C161.658 79.2025 161.485 79.39 161.148 79.39H154.555C154.218 79.39 154.03 79.2325 154 78.925L154.008 78.94ZM152.898 53.7475L152.11 60.3325C152.11 60.49 152.17 60.565 152.298 60.565H153.55C154.48 60.565 155.238 60.19 155.823 59.425C156.408 58.6675 156.7 57.625 156.7 56.29C156.7 55.39 156.498 54.7075 156.1 54.2275C155.695 53.7475 155.14 53.5075 154.428 53.5075H153.175C153.048 53.5075 152.958 53.5825 152.898 53.74V53.7475Z" fill="#1A1A40"/>
<path d="M183.745 49.225C185.14 50.755 185.83 52.8025 185.83 55.375C185.83 56.1175 185.8 56.6875 185.74 57.0925C185.365 60.0325 184.292 62.3875 182.515 64.165C180.737 65.9425 178.577 66.835 176.042 66.835H173.117C172.99 66.835 172.9 66.91 172.84 67.0675L171.4 78.85C171.37 79.0075 171.302 79.135 171.19 79.2475C171.077 79.36 170.95 79.4125 170.792 79.4125H164.387C164.23 79.4125 164.11 79.36 164.02 79.2475C163.93 79.1425 163.892 79.0075 163.93 78.85L167.777 47.485C167.807 47.3275 167.875 47.2 167.987 47.0875C168.092 46.9825 168.227 46.9225 168.385 46.9225H178.127C180.475 46.9225 182.35 47.6875 183.745 49.2175V49.225ZM177.385 59.71C177.97 58.9225 178.27 57.8125 178.27 56.395C178.27 55.465 178.067 54.7525 177.67 54.2575C177.265 53.7625 176.71 53.515 175.997 53.515H174.745C174.587 53.515 174.512 53.59 174.512 53.7475L173.635 60.6625C173.635 60.82 173.695 60.895 173.822 60.895H175.12C176.05 60.895 176.807 60.4975 177.392 59.71H177.385Z" fill="#1A1A40"/>
<path d="M204.58 46.9225H210.843C211 46.9225 211.12 46.975 211.218 47.0875C211.308 47.2 211.338 47.3275 211.308 47.485L207.46 78.85C207.43 79.0075 207.363 79.135 207.25 79.2475C207.138 79.36 207.01 79.4125 206.853 79.4125H200.448C200.29 79.4125 200.17 79.36 200.073 79.2475C199.983 79.1425 199.945 79.0075 199.983 78.85L202.443 58.945C202.473 58.825 202.443 58.75 202.375 58.735C202.3 58.72 202.225 58.7575 202.165 58.8475L198.318 64.51C198.19 64.7575 198.1 64.885 198.04 64.885C197.95 64.885 197.853 64.765 197.763 64.51L195.303 58.8475C195.243 58.7575 195.19 58.705 195.138 58.705C195.085 58.705 195.055 58.765 195.018 58.8925L192.558 78.8425C192.528 79 192.46 79.1275 192.348 79.24C192.235 79.3525 192.108 79.405 191.95 79.405H185.545C185.388 79.405 185.268 79.3525 185.178 79.24C185.088 79.135 185.05 79 185.088 78.8425L188.935 47.4775C188.965 47.32 189.033 47.1925 189.145 47.08C189.25 46.975 189.385 46.915 189.543 46.915H195.85C196.128 46.915 196.345 47.0425 196.503 47.29L199.24 54.0175C199.33 54.145 199.428 54.145 199.518 54.0175L203.883 47.29C204.003 47.0425 204.235 46.915 204.58 46.915V46.9225Z" fill="#1A1A40"/>
<path d="M191.125 98.125C138.25 98.125 127.383 161.125 107.5 161.125" stroke="#00CDA8" stroke-width="6" stroke-linecap="round" stroke-linejoin="round"/>
<path d="M207.16 95.1325L192.437 88.3C190.247 87.2875 187.75 88.885 187.75 91.2925V104.958C187.75 107.365 190.247 108.962 192.437 107.95L207.16 101.117C209.71 99.9325 209.71 96.3175 207.16 95.1325Z" fill="#00CDA8"/>
<path d="M124 104.875H28V108.625H124V104.875Z" fill="white"/>
</g>
<defs>
<clipPath id="clip0_2_326">
<rect width="183.315" height="143.25" fill="white" transform="translate(28 23.875)"/>
</clipPath>
</defs>
</svg>
