<svg width="240" height="200" viewBox="0 0 240 200" fill="none" xmlns="http://www.w3.org/2000/svg">
<rect width="240" height="200" fill="white"/>
<g clip-path="url(#clip0_2_330)">
<path d="M210.613 84.4725L192.163 87.9825C189.793 88.4325 188.69 91.185 190.1 93.15L199.318 105.998C200.72 107.955 203.683 107.798 204.868 105.698L214.1 89.34C215.48 86.895 213.373 83.955 210.613 84.48V84.4725Z" fill="#00CDA8"/>
<path d="M74.27 132.862L61.22 131.287C60.725 131.227 60.2225 131.347 59.81 131.617C58.52 132.465 58.55 134.37 59.8625 135.172L68.8775 140.715L71.765 162.187C71.9825 163.8 73.8725 164.572 75.155 163.567L75.665 163.17C76.22 162.735 76.52 162.052 76.4675 161.347L74.27 132.862Z" fill="#5BA7D5"/>
<path d="M168.012 99.2025L159.245 95.49" stroke="#3B3B5D" stroke-width="3" stroke-linecap="round" stroke-linejoin="round"/>
<g opacity="0.2">
<path d="M141.259 93.9652C182.338 65.7532 207.937 31.6671 198.435 17.8317C188.933 3.99633 147.929 15.6508 106.85 43.8628C65.7707 72.0748 40.1719 106.161 49.6736 119.996C59.1753 133.832 100.179 122.177 141.259 93.9652Z" fill="#1F96C2"/>
</g>
<path d="M109.063 112.883C118.333 108.21 130.91 109.11 135.965 110.168C137.158 110.415 138.403 110.168 139.4 109.47L167.81 89.46L150.245 68.7375L115.708 84.6375L101.975 108.36L67.37 138.975C66.4025 139.83 66.3125 141.3 67.1675 142.268C68.0075 143.22 69.455 143.325 70.4225 142.5C76.9925 136.92 100.393 117.255 109.07 112.883H109.063Z" fill="#1A1A40"/>
<path d="M129.23 64.1775C139.363 60.975 152.383 57.24 176.93 64.1475C179.878 64.98 181.445 68.1975 180.268 71.025C176.015 81.225 171.583 88.41 161.765 95.9325C158.765 98.2275 154.438 97.6575 152.15 94.65C146.758 87.54 135.403 77.3325 119.578 88.155C111.89 93.4125 104.615 105.255 101.968 108.368C102.05 93.6375 116.878 68.0925 129.23 64.185V64.1775Z" fill="#5BA7D5"/>
<path d="M124.257 118.725L150.837 99.0675L153.785 91.0575" stroke="#3B3B5D" stroke-width="3" stroke-linecap="round" stroke-linejoin="round"/>
<path d="M147.448 114.413L170.338 97.485L172.873 90.5925" stroke="#3B3B5D" stroke-width="3" stroke-linecap="round" stroke-linejoin="round"/>
<path d="M129.965 114.503L130.002 105.158" stroke="#3B3B5D" stroke-width="3" stroke-linecap="round" stroke-linejoin="round"/>
<path d="M142.85 104.648L142.887 95.3025" stroke="#3B3B5D" stroke-width="3" stroke-linecap="round" stroke-linejoin="round"/>
<path d="M152.645 109.755L142.67 105.525" stroke="#3B3B5D" stroke-width="3" stroke-linecap="round" stroke-linejoin="round"/>
<path d="M43.3325 143.453L69.755 185.94L195.605 99.09" stroke="#00CDA8" stroke-width="6" stroke-linecap="round" stroke-linejoin="round"/>
<g opacity="0.2">
<path d="M89.81 189H140.412L117.53 182.46L152.667 159.577L109.355 175.102L119.975 160.395L87.875 182.865C85.175 184.755 86.51 188.993 89.81 188.993V189Z" fill="#1F96C2"/>
</g>
<g opacity="0.2">
<path d="M56.225 189H32.1275L43.565 182.46L26 159.577L47.6525 175.102L42.3425 160.395L58.97 183.667C60.56 185.895 58.97 188.993 56.225 188.993V189Z" fill="#1F96C2"/>
</g>
</g>
<defs>
<clipPath id="clip0_2_330">
<rect width="188.535" height="177" fill="white" transform="translate(26 12)"/>
</clipPath>
</defs>
</svg>
