<?xml version="1.0" encoding="UTF-8" standalone="no"?>
<svg
   id="svg1541"
   version="1.1"
   viewBox="0 0 238.12443 49.951491"
   height="188.793"
   width="899.99786"
   sodipodi:docname="Rotorflight2.svg"
   inkscape:version="1.3 (0e150ed6c4, 2023-07-21)"
   xmlns:inkscape="http://www.inkscape.org/namespaces/inkscape"
   xmlns:sodipodi="http://sodipodi.sourceforge.net/DTD/sodipodi-0.dtd"
   xmlns="http://www.w3.org/2000/svg"
   xmlns:svg="http://www.w3.org/2000/svg"
   xmlns:rdf="http://www.w3.org/1999/02/22-rdf-syntax-ns#"
   xmlns:cc="http://creativecommons.org/ns#"
   xmlns:dc="http://purl.org/dc/elements/1.1/">
  <sodipodi:namedview
     id="namedview1"
     pagecolor="#ffffff"
     bordercolor="#666666"
     borderopacity="1.0"
     inkscape:showpageshadow="2"
     inkscape:pageopacity="0.0"
     inkscape:pagecheckerboard="0"
     inkscape:deskcolor="#d1d1d1"
     inkscape:document-units="mm"
     inkscape:zoom="2.8284271"
     inkscape:cx="523.43579"
     inkscape:cy="113.66741"
     inkscape:window-width="1920"
     inkscape:window-height="991"
     inkscape:window-x="-9"
     inkscape:window-y="-9"
     inkscape:window-maximized="1"
     inkscape:current-layer="svg1541" />
  <defs
     id="defs1535" />
  <metadata
     id="metadata1538">
    <rdf:RDF>
      <cc:Work
         rdf:about="">
        <dc:format>image/svg+xml</dc:format>
        <dc:type
           rdf:resource="http://purl.org/dc/dcmitype/StillImage" />
      </cc:Work>
    </rdf:RDF>
  </metadata>
  <g
     transform="matrix(3.7650765,0,0,3.7650765,-148.39794,-503.58532)"
     id="layer1">
    <g
       id="g1375"
       style="display:inline"
       transform="translate(-2.1800663,-25.057514)">
      <g
         id="g3162"
         transform="translate(-1.2825385,-4.7635129)"
         style="fill:#ffffff">
        <path
           id="path3150"
           style="font-style:italic;font-variant:normal;font-weight:900;font-stretch:normal;font-size:6.13982px;line-height:1.25;font-family:'Helvetica Now Text';-inkscape-font-specification:'Helvetica Now Text Heavy Italic';letter-spacing:0px;word-spacing:0px;fill:#ffffff;fill-opacity:1;stroke:none;stroke-width:0.228084"
           d="m 87.758081,168.11915 -0.378991,1.2339 h -1.995149 l -0.207821,0.67365 h 1.65603 l -0.35378,1.16721 h -1.65602 l -0.512677,1.67412 h -1.266041 l 1.447616,-4.74888 z" />
        <path
           id="path3152"
           style="font-style:italic;font-variant:normal;font-weight:900;font-stretch:normal;font-size:6.13982px;line-height:1.25;font-family:'Helvetica Now Text';-inkscape-font-specification:'Helvetica Now Text Heavy Italic';letter-spacing:0px;word-spacing:0px;fill:#ffffff;fill-opacity:1;stroke:none;stroke-width:0.228084"
           d="m 89.422239,168.11915 -1.057185,3.46828 h 1.797323 l -0.390431,1.2806 h -3.063374 l 1.447626,-4.74888 z" />
        <path
           id="path3154"
           style="font-style:italic;font-variant:normal;font-weight:900;font-stretch:normal;font-size:6.13982px;line-height:1.25;font-family:'Helvetica Now Text';-inkscape-font-specification:'Helvetica Now Text Heavy Italic';letter-spacing:0px;word-spacing:0px;fill:#ffffff;fill-opacity:1;stroke:none;stroke-width:0.228084"
           d="m 91.462947,172.86803 h -1.266041 l 1.447616,-4.74888 h 1.266042 z" />
        <path
           id="path3156"
           style="font-style:italic;font-variant:normal;font-weight:900;font-stretch:normal;font-size:6.13982px;line-height:1.25;font-family:'Helvetica Now Text';-inkscape-font-specification:'Helvetica Now Text Heavy Italic';letter-spacing:0px;word-spacing:0px;fill:#ffffff;fill-opacity:1;stroke:none;stroke-width:0.228084"
           d="m 95.1754,170.25348 h 1.712551 l -0.793134,2.61455 h -0.842141 l 0.07555,-0.42687 q -0.495813,0.58027 -1.258823,0.58027 -0.712151,0 -1.078751,-0.55359 -0.36659,-0.55359 -0.254177,-1.46068 0.0405,-0.32681 0.1481,-0.69365 0.326895,-1.08718 1.024657,-1.7008 0.691282,-0.60695 1.572987,-0.60695 0.729107,0 1.153313,0.45355 0.417738,0.46021 0.324335,1.21389 h -1.237781 q -0.01965,-0.48022 -0.494378,-0.48022 -0.356076,0 -0.644436,0.32015 -0.287542,0.31348 -0.467662,0.90042 -0.09206,0.28681 -0.130087,0.59361 -0.0529,0.42687 0.08055,0.62696 0.139115,0.20009 0.478234,0.20009 0.548239,0 0.842093,-0.54692 h -0.52563 z" />
        <path
           id="path3158"
           style="font-style:italic;font-variant:normal;font-weight:900;font-stretch:normal;font-size:6.13982px;line-height:1.25;font-family:'Helvetica Now Text';-inkscape-font-specification:'Helvetica Now Text Heavy Italic';letter-spacing:0px;word-spacing:0px;fill:#ffffff;fill-opacity:1;stroke:none;stroke-width:0.228084"
           d="m 100.13193,169.73323 0.49393,-1.61408 h 1.26604 l -1.44763,4.74888 h -1.266039 l 0.563254,-1.8542 h -1.136042 l -0.563254,1.8542 h -1.266041 l 1.447616,-4.74888 h 1.266041 l -0.493931,1.61408 z" />
        <path
           id="path3160"
           style="font-style:italic;font-variant:normal;font-weight:900;font-stretch:normal;font-size:6.13982px;line-height:1.25;font-family:'Helvetica Now Text';-inkscape-font-specification:'Helvetica Now Text Heavy Italic';letter-spacing:0px;word-spacing:0px;fill:#ffffff;fill-opacity:1;stroke:none;stroke-width:0.228084"
           d="m 102.37399,168.11915 h 3.589 l -0.39044,1.28059 h -1.15865 l -1.05718,3.46829 h -1.26605 l 1.05719,-3.46829 h -1.1643 z" />
      </g>
      <g
         id="g3182"
         style="font-style:normal;font-weight:normal;font-size:43.7402px;line-height:1.25;font-family:sans-serif;display:inline;fill:#ffffff;fill-opacity:1;stroke:none;stroke-width:1.09351"
         transform="matrix(0.05544423,0,0,0.06504456,46.670121,158.91773)">
        <path
           id="path3164"
           d="m 144.30283,148.30013 c 0.25782,0.74679 -13.24009,6.26181 -34.53704,18.14964 -8.45111,4.72298 -24.240969,13.83983 -36.538646,20.1064 -9.980481,5.10372 -21.89867,10.79968 -34.792987,13.70718 -4.976082,1.12562 -10.338905,1.80119 -15.841275,1.41125 -5.063965,-0.94995 -10.241552,-2.89728 -14.9460255,-6.10092 2.2612635,-7.43137 4.9140995,-14.9414 8.0026005,-22.42262 12.20084,-29.55388 28.869645,-53.09946 47.967242,-70.35722 0,0 1.1e-5,0 1.1e-5,0 18.952645,-8.652971 35.213988,-12.608393 49.93863,-12.891383 6.70309,-0.09484 13.24146,0.570067 17.94583,1.132812 11.00725,1.312131 17.2033,2.152351 17.1987,2.501743 -0.009,0.6753 -6.29346,0.816737 -17.4279,0.358641 -4.62867,-0.187936 -11.23314,-0.444354 -17.56166,-0.03152 -13.99504,0.841991 -28.971255,5.018155 -47.014751,13.600427 -3e-6,0 -6e-6,0 -1e-5,0 -18.304716,16.19055 -34.314302,37.88773 -46.363954,65.38252 -3.050519,6.96065 -5.701253,13.96523 -7.991911,20.91706 3.183084,1.39914 6.957464,1.8429 10.74595,1.58234 4.650242,0.40059 9.423423,-0.17707 14.034794,-1.13328 12.004103,-2.49926 23.646901,-7.8413 33.649213,-12.62422 14.117147,-6.77459 26.472212,-13.52538 37.053209,-18.81306 22.00026,-11.00661 36.09403,-15.59372 36.47998,-14.47579 z"
           style="opacity:1;fill:#ffffff;fill-opacity:1;stroke:none;stroke-width:0;stroke-linecap:butt;stroke-linejoin:miter;stroke-miterlimit:4;stroke-dasharray:none;stroke-opacity:1" />
        <path
           id="path3166"
           d="m 153.3887,107.16305 c -1.21243,-2.47944 34.80763,-22.586633 80.40193,-44.882138 45.59431,-22.295505 83.58239,-38.378114 84.79482,-35.898679 1.21244,2.479434 -34.80762,22.586632 -80.40193,44.882137 -45.5943,22.295505 -83.58238,38.37811 -84.79482,35.89868 z"
           style="fill:#ffffff;fill-opacity:1;stroke:none;stroke-width:0.264583px;stroke-linecap:butt;stroke-linejoin:miter;stroke-opacity:1" />
        <path
           id="path3168"
           d="m 77.947508,197.06729 c -1.572191,-3.09903 22.168242,-15.29339 51.924852,-28.48985 10.61765,-4.70872 20.60658,-9.04448 29.06305,-12.8533 -15.93994,2.34199 -27.02424,1.96053 -27.02424,-0.22885 0,-2.16283 11.25852,-2.59739 28.93808,-0.22885 -8.0432,4.56174 -17.59959,10.14165 -27.92812,16.05929 -29.24348,16.75478 -53.409299,28.82508 -54.973622,25.74156 z"
           style="fill:#ffffff;fill-opacity:1;stroke:none;stroke-width:0.264583px;stroke-linecap:butt;stroke-linejoin:miter;stroke-opacity:1" />
        <path
           id="path3170"
           d="M -91.538358,155.09556 C -92.426691,153.28717 -21.694973,116.71992 66.344941,73.472243 154.38485,30.224565 226.5585,-3.4073196 227.44684,-1.5989272 228.33517,0.20946525 157.60345,36.776711 69.563539,80.02439 -18.476375,123.27207 -90.650025,156.90395 -91.538358,155.09556 Z"
           style="fill:#ffffff;fill-opacity:1;stroke:none;stroke-width:0.264583px;stroke-linecap:butt;stroke-linejoin:miter;stroke-opacity:1" />
        <path
           id="path3172"
           d="m 83.72155,180.80292 c 0.271145,-0.84055 3.583558,-0.5252 7.393781,0.7039 3.810222,1.2291 6.682517,2.90882 6.411372,3.74937 -0.271144,0.84055 -3.583558,0.5252 -7.39378,-0.7039 -3.810223,-1.2291 -6.682518,-2.90882 -6.411373,-3.74937 z"
           style="fill:#ffffff;fill-opacity:1;stroke:none;stroke-width:0.264583px;stroke-linecap:butt;stroke-linejoin:miter;stroke-opacity:1" />
        <path
           id="path3174"
           d="m 148.29402,93.964079 c 0.89824,-0.449118 5.43674,7.707801 11.19318,19.948691 0,0 1e-5,0 1e-5,0 -2.47288,1.9781 -5.13157,4.2371 -7.56507,6.73402 -1.38634,1.42246 -2.6476,2.86779 -3.78045,4.35889 -2.15947,2.66249 -3.65789,5.31888 -4.34224,8.02592 -0.68921,2.58558 -0.59975,5.2701 -0.35603,7.39809 0,0 0,0 0,0 0.5527,4.76866 1.56659,7.646 0.85941,7.87044 -0.26522,0.0842 -2.12716,-2.41762 -3.45557,-7.3653 0,0 0,0 0,0 -0.6195,-2.30392 -1.03567,-5.34257 -0.44376,-8.64285 0.64173,-3.38068 2.24865,-6.69684 4.6656,-9.74751 1.16215,-1.37401 2.45801,-2.66036 3.87895,-3.88082 2.50022,-2.14748 5.20755,-3.93417 7.74718,-5.45946 0,0 0,0 0,0 -5.60564,-10.49896 -9.30572,-18.787858 -8.40121,-19.240111 z"
           style="fill:#ffffff;fill-opacity:1;stroke:none;stroke-width:0.264583px;stroke-linecap:butt;stroke-linejoin:miter;stroke-opacity:1" />
        <path
           id="path3176"
           d="m 73.924347,81.94024 c 0.765272,-0.382636 2.662729,1.859552 4.235395,5.004883 1.572666,3.145332 2.227943,6.00861 1.462671,6.391246 -0.765272,0.382636 -2.662729,-1.859552 -4.235395,-5.004883 -1.572666,-3.145332 -2.227943,-6.00861 -1.462671,-6.391246 z"
           style="fill:#ffffff;fill-opacity:1;stroke:none;stroke-width:0.264583px;stroke-linecap:butt;stroke-linejoin:miter;stroke-opacity:1" />
        <path
           id="path3178"
           d="m 293.40242,18.787349 c 0.48392,0.314055 -2.88175,4.592919 -2.89373,11.523586 -0.07,2.207278 0.48845,4.831317 0.11446,8.07774 1.65002,2.219895 3.50505,4.770692 5.5511,6.843237 1.6976,1.869341 3.68238,3.593654 5.92474,5.087061 0.5408,0.360167 1.08908,0.701887 1.64332,1.025122 0,0 0,10e-7 0,10e-7 8.11766,4.79014 17.8281,6.877047 23.95107,8.194076 6.53203,1.405017 10.55151,2.225808 10.4789,2.819837 -0.0558,0.456116 -4.17766,0.63356 -10.91578,-0.07431 -6.41632,-0.674064 -16.44175,-2.31249 -25.51688,-7.483446 0,-10e-7 -10e-6,-10e-7 -10e-6,-10e-7 -0.62756,-0.36157 -1.24751,-0.745777 -1.85807,-1.152609 -2.53266,-1.687568 -4.7538,-3.664038 -6.6301,-5.821913 -2.34684,-2.879114 -4.27503,-6.04269 -5.86381,-8.666626 0.38684,-2.964893 -0.0564,-6.139087 0.20287,-9.03639 1.01191,-8.636157 6.08789,-11.156266 5.81192,-11.335364 z"
           style="fill:#ffffff;fill-opacity:1;stroke:none;stroke-width:0.264583px;stroke-linecap:butt;stroke-linejoin:miter;stroke-opacity:1" />
        <path
           id="path3180"
           d="m 298.82717,20.522621 c -10.52641,-8.380602 -12.08193,-11.6347262 -3.47211,-7.263654 8.60977,4.371038 24.14066,14.720261 34.66708,23.100866 10.5264,8.380607 12.08192,11.634726 3.4721,7.26365 -8.60976,-4.371034 -24.14066,-14.720257 -34.66707,-23.100862 z"
           style="fill:#ffffff;fill-opacity:1;stroke:none;stroke-width:0.304059px;stroke-linecap:butt;stroke-linejoin:miter;stroke-opacity:1" />
      </g>
      <g
         id="g3206"
         transform="translate(-1.2825385,-4.7635129)"
         style="fill:#007cc7;fill-opacity:1">
        <path
           id="path3184"
           style="font-style:italic;font-variant:normal;font-weight:900;font-stretch:normal;font-size:6.13982px;line-height:1.25;font-family:'Helvetica Now Text';-inkscape-font-specification:'Helvetica Now Text Heavy Italic';font-variant-ligatures:normal;font-variant-caps:normal;font-variant-numeric:normal;font-feature-settings:normal;text-align:start;letter-spacing:0px;word-spacing:0px;writing-mode:lr-tb;text-anchor:start;fill:#007cc7;fill-opacity:1;stroke:none;stroke-width:0.228084"
           d="m 66.1758,169.3197 q -0.126467,1.02049 -1.090719,1.36732 0.394968,0.23343 0.317271,0.86039 -0.0091,0.0733 -0.04189,0.24679 l -0.223512,1.07383 h -1.243433 l 0.206155,-0.93377 q 0.02949,-0.14673 0.03693,-0.20676 0.06447,-0.52025 -0.382033,-0.52025 h -0.553893 l -0.505372,1.66078 h -1.26604 l 1.447618,-4.74888 h 2.232528 q 0.5765,0 0.852509,0.32682 0.282487,0.32015 0.213882,0.87373 z m -2.65236,0.83373 h 0.717801 q 0.226078,0 0.386389,-0.15341 0.166788,-0.16007 0.195717,-0.39351 0.04381,-0.35351 -0.306612,-0.35351 h -0.7178 z" />
        <path
           id="path3186"
           style="font-style:italic;font-variant:normal;font-weight:900;font-stretch:normal;font-size:6.13982px;line-height:1.25;font-family:'Helvetica Now Text';-inkscape-font-specification:'Helvetica Now Text Heavy Italic';font-variant-ligatures:normal;font-variant-caps:normal;font-variant-numeric:normal;font-feature-settings:normal;text-align:start;letter-spacing:0px;word-spacing:0px;writing-mode:lr-tb;text-anchor:start;fill:#007cc7;fill-opacity:1;stroke:none;stroke-width:0.228084"
           d="m 67.778431,173.02143 q -0.796927,0 -1.216872,-0.53358 -0.419942,-0.53358 -0.306703,-1.44734 0.03389,-0.27347 0.144006,-0.66031 0.335855,-1.11386 1.046574,-1.74081 0.711544,-0.63363 1.621511,-0.63363 0.80258,0 1.222524,0.53358 0.415117,0.52691 0.301051,1.44734 -0.03389,0.27347 -0.144005,0.66032 -0.340682,1.10718 -1.040922,1.7408 -0.700241,0.63363 -1.627164,0.63363 z m 0.254518,-1.18722 q 0.802579,0 1.187493,-1.32728 0.08241,-0.30014 0.103904,-0.47356 0.05125,-0.41353 -0.08621,-0.62696 -0.131806,-0.21343 -0.425709,-0.21343 -0.389985,0 -0.697783,0.34016 -0.301318,0.33349 -0.488057,0.97379 -0.08241,0.30013 -0.104731,0.48022 -0.05125,0.41353 0.07973,0.63363 0.137457,0.21343 0.43136,0.21343 z" />
        <path
           id="path3188"
           style="font-style:italic;font-variant:normal;font-weight:900;font-stretch:normal;font-size:6.13982px;line-height:1.25;font-family:'Helvetica Now Text';-inkscape-font-specification:'Helvetica Now Text Heavy Italic';font-variant-ligatures:normal;font-variant-caps:normal;font-variant-numeric:normal;font-feature-settings:normal;text-align:start;letter-spacing:0px;word-spacing:0px;writing-mode:lr-tb;text-anchor:start;fill:#007cc7;fill-opacity:1;stroke:none;stroke-width:0.228084"
           d="m 71.354388,168.11915 h 3.589005 l -0.39043,1.28059 h -1.15866 l -1.057186,3.46829 h -1.266042 l 1.057187,-3.46829 h -1.164301 z" />
        <path
           id="path3190"
           style="font-style:italic;font-variant:normal;font-weight:900;font-stretch:normal;font-size:6.13982px;line-height:1.25;font-family:'Helvetica Now Text';-inkscape-font-specification:'Helvetica Now Text Heavy Italic';font-variant-ligatures:normal;font-variant-caps:normal;font-variant-numeric:normal;font-feature-settings:normal;text-align:start;letter-spacing:0px;word-spacing:0px;writing-mode:lr-tb;text-anchor:start;fill:#007cc7;fill-opacity:1;stroke:none;stroke-width:0.228084"
           d="m 75.991451,173.02143 q -0.796933,0 -1.216873,-0.53358 -0.419948,-0.53358 -0.306708,-1.44734 0.03389,-0.27347 0.143968,-0.66031 0.335862,-1.11386 1.046581,-1.74081 0.711544,-0.63363 1.62151,-0.63363 0.802576,0 1.222525,0.53358 0.415114,0.52691 0.301047,1.44734 -0.03389,0.27347 -0.143968,0.66032 -0.340679,1.10718 -1.040919,1.7408 -0.700241,0.63363 -1.627163,0.63363 z m 0.254511,-1.18722 q 0.802585,0 1.187497,-1.32728 0.08239,-0.30014 0.103885,-0.47356 0.05125,-0.41353 -0.08621,-0.62696 -0.13181,-0.21343 -0.425712,-0.21343 -0.389988,0 -0.697784,0.34016 -0.301318,0.33349 -0.488059,0.97379 -0.08239,0.30013 -0.104712,0.48022 -0.05125,0.41353 0.07974,0.63363 0.137453,0.21343 0.431354,0.21343 z" />
        <path
           id="path3192"
           style="font-style:italic;font-variant:normal;font-weight:900;font-stretch:normal;font-size:6.13982px;line-height:1.25;font-family:'Helvetica Now Text';-inkscape-font-specification:'Helvetica Now Text Heavy Italic';font-variant-ligatures:normal;font-variant-caps:normal;font-variant-numeric:normal;font-feature-settings:normal;text-align:start;letter-spacing:0px;word-spacing:0px;writing-mode:lr-tb;text-anchor:start;fill:#007cc7;fill-opacity:1;stroke:none;stroke-width:0.228084"
           d="m 83.374561,169.3197 q -0.126466,1.02049 -1.090719,1.36732 0.394972,0.23343 0.317274,0.86039 -0.0091,0.0733 -0.04191,0.24679 l -0.223476,1.07383 h -1.243433 l 0.206119,-0.93377 q 0.02951,-0.14673 0.03695,-0.20676 0.06447,-0.52025 -0.382036,-0.52025 h -0.553891 l -0.505371,1.66078 h -1.266041 l 1.447616,-4.74888 h 2.232529 q 0.576499,0 0.852508,0.32682 0.282487,0.32015 0.213881,0.87373 z m -2.652352,0.83373 h 0.717794 q 0.226085,0 0.386391,-0.15341 0.166792,-0.16007 0.195722,-0.39351 0.04381,-0.35351 -0.306614,-0.35351 H 80.9977 Z" />
        <g
           id="g3204"
           transform="translate(1.5434028,-8.57446)"
           style="fill:#007cc7;fill-opacity:1">
          <path
             id="path3194"
             style="font-style:italic;font-variant:normal;font-weight:900;font-stretch:normal;font-size:6.13982px;line-height:1.25;font-family:'Helvetica Now Text';-inkscape-font-specification:'Helvetica Now Text Heavy Italic';font-variant-ligatures:normal;font-variant-caps:normal;font-variant-numeric:normal;font-feature-settings:normal;text-align:start;letter-spacing:0px;word-spacing:0px;writing-mode:lr-tb;text-anchor:start;fill:#007cc7;fill-opacity:1;stroke:none;stroke-width:0.228084"
             d="m 64.656896,177.89416 q -0.126467,1.02049 -1.090719,1.36731 0.394968,0.23344 0.31727,0.8604 -0.0091,0.0733 -0.04189,0.24679 l -0.223512,1.07383 h -1.243433 l 0.206155,-0.93377 q 0.02949,-0.14673 0.03693,-0.20676 0.06447,-0.52025 -0.382032,-0.52025 h -0.553893 l -0.505372,1.66078 h -1.266041 l 1.447618,-4.74888 h 2.232528 q 0.576501,0 0.852509,0.32682 0.282487,0.32015 0.213882,0.87373 z m -2.652361,0.83373 h 0.717801 q 0.226078,0 0.38639,-0.15341 0.166788,-0.16007 0.195717,-0.39351 0.04381,-0.35351 -0.306612,-0.35351 h -0.7178 z" />
          <path
             id="path3196"
             style="font-style:italic;font-variant:normal;font-weight:900;font-stretch:normal;font-size:6.13982px;line-height:1.25;font-family:'Helvetica Now Text';-inkscape-font-specification:'Helvetica Now Text Heavy Italic';font-variant-ligatures:normal;font-variant-caps:normal;font-variant-numeric:normal;font-feature-settings:normal;text-align:start;letter-spacing:0px;word-spacing:0px;writing-mode:lr-tb;text-anchor:start;fill:#007cc7;fill-opacity:1;stroke:none;stroke-width:0.228084"
             d="m 66.259527,181.59589 q -0.796927,0 -1.216872,-0.53358 -0.419943,-0.53358 -0.306703,-1.44734 0.03389,-0.27347 0.144005,-0.66031 0.335856,-1.11386 1.046574,-1.74081 0.711545,-0.63363 1.621512,-0.63363 0.802579,0 1.222524,0.53358 0.415117,0.52691 0.301051,1.44734 -0.03389,0.27347 -0.144006,0.66032 -0.340681,1.10718 -1.040921,1.7408 -0.700241,0.63363 -1.627164,0.63363 z m 0.254518,-1.18722 q 0.802579,0 1.187493,-1.32728 0.08241,-0.30014 0.103904,-0.47356 0.05125,-0.41353 -0.08621,-0.62696 -0.131805,-0.21343 -0.425708,-0.21343 -0.389985,0 -0.697783,0.34016 -0.301319,0.33349 -0.488057,0.97379 -0.08241,0.30013 -0.104731,0.48022 -0.05125,0.41353 0.07973,0.63363 0.137458,0.21343 0.431362,0.21343 z" />
          <path
             id="path3198"
             style="font-style:italic;font-variant:normal;font-weight:900;font-stretch:normal;font-size:6.13982px;line-height:1.25;font-family:'Helvetica Now Text';-inkscape-font-specification:'Helvetica Now Text Heavy Italic';font-variant-ligatures:normal;font-variant-caps:normal;font-variant-numeric:normal;font-feature-settings:normal;text-align:start;letter-spacing:0px;word-spacing:0px;writing-mode:lr-tb;text-anchor:start;fill:#007cc7;fill-opacity:1;stroke:none;stroke-width:0.228084"
             d="m 69.835484,176.69361 h 3.589005 l -0.39043,1.28059 h -1.15866 l -1.057187,3.46829 h -1.266041 l 1.057187,-3.46829 h -1.164302 z" />
          <path
             id="path3200"
             style="font-style:italic;font-variant:normal;font-weight:900;font-stretch:normal;font-size:6.13982px;line-height:1.25;font-family:'Helvetica Now Text';-inkscape-font-specification:'Helvetica Now Text Heavy Italic';font-variant-ligatures:normal;font-variant-caps:normal;font-variant-numeric:normal;font-feature-settings:normal;text-align:start;letter-spacing:0px;word-spacing:0px;writing-mode:lr-tb;text-anchor:start;fill:#007cc7;fill-opacity:1;stroke:none;stroke-width:0.228084"
             d="m 74.472547,181.59589 q -0.796933,0 -1.216873,-0.53358 -0.419948,-0.53358 -0.306709,-1.44734 0.03389,-0.27347 0.143969,-0.66031 0.335862,-1.11386 1.04658,-1.74081 0.711545,-0.63363 1.621511,-0.63363 0.802576,0 1.222525,0.53358 0.415113,0.52691 0.301047,1.44734 -0.03389,0.27347 -0.143968,0.66032 -0.340679,1.10718 -1.040919,1.7408 -0.700241,0.63363 -1.627163,0.63363 z m 0.254511,-1.18722 q 0.802585,0 1.187496,-1.32728 0.08239,-0.30014 0.103886,-0.47356 0.05125,-0.41353 -0.0862,-0.62696 -0.13181,-0.21343 -0.425712,-0.21343 -0.389988,0 -0.697785,0.34016 -0.301317,0.33349 -0.488058,0.97379 -0.08239,0.30013 -0.104712,0.48022 -0.05125,0.41353 0.07973,0.63363 0.137453,0.21343 0.431355,0.21343 z" />
          <path
             id="path3202"
             style="font-style:italic;font-variant:normal;font-weight:900;font-stretch:normal;font-size:6.13982px;line-height:1.25;font-family:'Helvetica Now Text';-inkscape-font-specification:'Helvetica Now Text Heavy Italic';font-variant-ligatures:normal;font-variant-caps:normal;font-variant-numeric:normal;font-feature-settings:normal;text-align:start;letter-spacing:0px;word-spacing:0px;writing-mode:lr-tb;text-anchor:start;fill:#007cc7;fill-opacity:1;stroke:none;stroke-width:0.228084"
             d="m 81.855657,177.89416 q -0.126467,1.02049 -1.090719,1.36731 0.394972,0.23344 0.317274,0.8604 -0.0091,0.0733 -0.04191,0.24679 l -0.223475,1.07383 h -1.243433 l 0.206118,-0.93377 q 0.02951,-0.14673 0.03695,-0.20676 0.06447,-0.52025 -0.382036,-0.52025 h -0.553891 l -0.505371,1.66078 h -1.266042 l 1.447617,-4.74888 h 2.232529 q 0.576499,0 0.852507,0.32682 0.282488,0.32015 0.213883,0.87373 z m -2.652352,0.83373 h 0.717793 q 0.226086,0 0.386392,-0.15341 0.166792,-0.16007 0.195722,-0.39351 0.04381,-0.35351 -0.306614,-0.35351 h -0.717803 z" />
        </g>
      </g>
    </g>
  </g>
  <path
     style="fill:none;stroke:#000000;stroke-width:0.5;stroke-linecap:butt;stroke-linejoin:miter;stroke-opacity:1;stroke-dasharray:none"
     d="m 75.30108,17.119863 -5.450046,17.878516 m 0,0 4.85581,-0.007 1.900119,-6.249882 h 2.087208 l 0.116931,0.0058 0.09354,0.01174 0.09355,0.01169 0.09354,0.02339 0.134473,0.04092 0.122777,0.04093 0.11693,0.06431"
     id="path8" />
  <path
     style="fill:none;stroke:#000000;stroke-width:0.5;stroke-linecap:butt;stroke-linejoin:miter;stroke-opacity:1;stroke-dasharray:none"
     d="m 79.424987,28.911044 0.128622,0.08185 m 0,0 0.09939,0.05847 0.07601,0.09939 0.09354,0.09939 0.06431,0.105237 0.05262,0.111084 0.04093,0.13447 0.04677,0.169549 0.03508,0.187089 -2e-6,0.181242 0.0058,0.257247 -0.02334,0.298173 -0.04677,0.292326 -0.192937,0.935443 -0.444335,2.034589 -0.233861,1.034835 h 4.770761 l 0.701582,-3.314978 0.111084,-0.549573 0.111084,-0.596345 0.07016,-0.473568 0.04092,-0.350791 0.01754,-0.368331 4e-6,-0.163703 -0.02339,-0.26894 -0.04677,-0.362484 -0.08185,-0.356638 -0.111084,-0.309865 -0.11693,-0.233861 -0.140317,-0.204628 -0.128623,-0.16955 -0.140317,-0.140316 -0.146163,-0.140317 -0.140316,-0.09354 -0.175396,-0.111088 0.298173,-0.105237 0.339098,-0.15201 0.274787,-0.128623"
     id="path9" />
  <path
     style="fill:none;stroke:#000000;stroke-width:0.5;stroke-linecap:butt;stroke-linejoin:miter;stroke-opacity:1;stroke-dasharray:none"
     d="m 84.581618,26.397041 0.280633,-0.13447 m 0,0 0.192935,-0.11693 0.233861,-0.140316 0.327405,-0.233861 0.26894,-0.228014 0.26894,-0.251401 0.175396,-0.198781 0.26894,-0.309866 0.222167,-0.309865 0.157856,-0.257247 0.15201,-0.274787 0.13447,-0.257247 0.140317,-0.356638 0.13447,-0.38587 0.111083,-0.420949 0.09939,-0.444336 0.05847,-0.415103 0.04092,-0.380024 0.01169,-0.350791 5e-6,-0.309866 -0.03508,-0.350791 -0.076,-0.40341 -0.105241,-0.420949 -0.163703,-0.391717 -0.169549,-0.309866 -0.140316,-0.198782 -0.181242,-0.210474 -0.163703,-0.181243 -0.216321,-0.192935 -0.233861,-0.181242 -0.187089,-0.11693 -0.257247,-0.140317 -0.304019,-0.11693 -0.339098,-0.111084 -0.415103,-0.0877 -0.333252,-0.04677 -0.321558,-0.02923 -0.461876,-0.01754 -5.641892,-2e-6 -2.812177,0.0058 -0.175395,0.596391"
     id="path10" />
  <path
     style="fill:none;stroke:#000000;stroke-width:0.5;stroke-linecap:butt;stroke-linejoin:miter;stroke-opacity:1;stroke-dasharray:none"
     d="m 69.848381,35.00312 0.44434,10e-7 -0.44434,-10e-7 m 0.0877,-0.263093 -0.0877,0.263093 z"
     id="path11" />
  <path
     style="fill:none;stroke:#000000;stroke-width:0.5;stroke-linecap:butt;stroke-linejoin:miter;stroke-opacity:1;stroke-dasharray:none"
     d="m 70.187483,33.915667 -0.333253,1.081606 m 0,0 0.976371,10e-7"
     id="path12" />
  <path
     style="fill:none;stroke:#000000;stroke-width:0.5;stroke-linecap:butt;stroke-linejoin:miter;stroke-opacity:1;stroke-dasharray:none"
     d="m 79.389906,28.893505 0.321558,0.210476"
     id="path13" />
  <path
     style="fill:none;stroke:#000000;stroke-width:0.5;stroke-linecap:butt;stroke-linejoin:miter;stroke-opacity:1;stroke-dasharray:none"
     d="m 84.540692,26.44966 0.461875,-0.2514"
     id="path14" />
  <path
     style="fill:none;stroke:#000000;stroke-width:0.5;stroke-linecap:butt;stroke-linejoin:miter;stroke-opacity:1;stroke-dasharray:none"
     d="m 70.226202,33.804653 -0.380338,1.194761 1.405601,-0.0124"
     id="path15" />
  <path
     style="fill:none;stroke:#000000;stroke-width:0.5;stroke-linecap:butt;stroke-linejoin:miter;stroke-opacity:1;stroke-dasharray:none"
     d="m 78.857874,21.386573 -1.052375,3.390982 1.601948,1e-6 h 1.07576 l 0.339098,-0.03508 0.177402,-0.03287 0.144694,-0.04548 0.177767,-0.06614 0.136426,-0.07028 0.169498,-0.111625 0.11989,-0.08682 0.115755,-0.09921 0.111621,-0.111627 0.07855,-0.09095 0.115753,-0.136426 0.07441,-0.107487 0.08682,-0.144694 0.07855,-0.152962 0.07855,-0.181901 0.05788,-0.165365 0.04134,-0.181901 0.02894,-0.144694 0.02066,-0.169498 0.01241,-0.165365 -0.0083,-0.157096 -0.01237,-0.148829 -0.03308,-0.128157 -0.0496,-0.128158 -0.05788,-0.111621 -0.06201,-0.08268 -0.07028,-0.06615 -0.07442,-0.06614 -0.07855,-0.04548 -0.06614,-0.03721 -0.08682,-0.0372 -0.09095,-0.02481 -0.111621,-0.0248 -0.132291,-0.01654 -0.194304,-0.01654 -0.210839,5e-6 z"
     id="path16" />
  <path
     style="fill:none;stroke:#000000;stroke-width:0.5;stroke-linecap:butt;stroke-linejoin:miter;stroke-opacity:1;stroke-dasharray:none"
     d="m 110.12868,21.935612 -3.97289,13.059666 m 0,0 4.85759,0.0041 3.97702,-13.063766 h 4.36149 l 1.46761,-4.816244 h -13.60537 l -1.46348,4.816244 h 4.37803"
     id="path17" />
  <path
     style="fill:none;stroke:#000000;stroke-width:0.264583px;stroke-linecap:butt;stroke-linejoin:miter;stroke-opacity:1"
     d="m 109.46308,21.927343 h 0.66146"
     id="path18" />
  <path
     style="fill:none;stroke:#000000;stroke-width:0.5;stroke-linecap:butt;stroke-linejoin:miter;stroke-opacity:1;stroke-dasharray:none"
     d="m 106.11435,21.918607 4.0341,0.0058 -0.71912,2.338655"
     id="path19" />
  <path
     style="fill:none;stroke:#000000;stroke-width:0.5;stroke-linecap:butt;stroke-linejoin:miter;stroke-opacity:1;stroke-dasharray:none"
     d="m 139.84056,17.784961 -5.23379,17.206184 m 0,0 4.84518,10e-7 1.90996,-6.250781 1.93477,0.0083 0.22324,0.0082 0.19844,3.6e-5 0.16536,0.04134 0.0992,0.04134 0.13231,0.04134 0.1323,0.06615 0.13229,0.09095 0.10748,0.107487 0.0909,0.09095 0.0579,0.107487 0.0496,0.107487 0.0579,0.14056 0.0414,0.14056 0.033,0.190169 0.008,0.223242 3e-4,0.214974 -0.0248,0.305925 -0.0827,0.537435 -0.17362,0.826823 -0.66972,2.960026 h 4.77903 l 0.57878,-2.827735 0.19844,-0.901237 0.10748,-0.520898 0.0744,-0.438216 0.0496,-0.314193 0.0248,-0.264583 0.0166,-0.248047 -3e-5,-0.223242 -0.008,-0.264584 -0.0333,-0.248046 -0.0331,-0.264584 -0.0827,-0.297656 -0.0909,-0.248047 -0.091,-0.214974 -0.0992,-0.173633 -0.16538,-0.206705 -0.1571,-0.181901 -0.1571,-0.132292 -0.15709,-0.132292 -0.17364,-0.09922 0.30593,-0.124022"
     id="path20" />
  <path
     style="fill:none;stroke:#000000;stroke-width:0.5;stroke-linecap:butt;stroke-linejoin:miter;stroke-opacity:1;stroke-dasharray:none"
     d="m 148.7041,26.681575 0.43822,-0.181901"
     id="path21" />
  <path
     style="fill:none;stroke:#000000;stroke-width:0.5;stroke-linecap:butt;stroke-linejoin:miter;stroke-opacity:1;stroke-dasharray:none"
     d="m 148.98935,26.569953 0.35554,-0.157095 m 0,0 0.0786,-0.04547 0.20665,-0.111626 0.24805,-0.152963 0.19844,-0.124023 0.2067,-0.148828 0.21498,-0.161231 0.19843,-0.169498 0.1447,-0.14056 0.17363,-0.177767 0.16123,-0.177767 0.15296,-0.186035 0.1447,-0.194304 0.15296,-0.206705 0.12816,-0.223242 0.14056,-0.264584 0.10748,-0.227376 0.0992,-0.219108 0.0744,-0.202572 0.0703,-0.190169 0.0496,-0.152962 0.0579,-0.206706 0.0496,-0.190169 0.0414,-0.19017 0.0496,-0.227376 0.0496,-0.310058 0.0372,-0.314193 0.0248,-0.289388 0.0124,-0.297656 -0.008,-0.28112 -0.0168,-0.260449 -0.0331,-0.297657 -0.0703,-0.318327 -0.0909,-0.310058 -0.10751,-0.268718 -0.10335,-0.202571"
     id="path22" />
  <path
     style="fill:none;stroke:#000000;stroke-width:0.264583px;stroke-linecap:butt;stroke-linejoin:miter;stroke-opacity:1"
     d="m 152.19329,18.987988 0.0165,0.02067"
     id="path23" />
  <path
     style="fill:none;stroke:#000000;stroke-width:0.5;stroke-linecap:butt;stroke-linejoin:miter;stroke-opacity:1;stroke-dasharray:none"
     d="m 152.2429,19.074804 -0.1943,-0.355533 -0.0951,-0.148828 -0.16948,-0.202572 -0.12816,-0.136426 -0.1695,-0.169498 -0.21911,-0.186036 -0.23151,-0.165364 -0.27698,-0.148828 -0.22738,-0.09922 -0.22738,-0.09095 -0.26871,-0.07855 -0.24392,-0.05787 -0.31006,-0.05788 -0.30179,-0.03308 -0.57464,-0.02894 -0.43408,-0.0041"
     id="path24" />
  <path
     style="fill:none;stroke:#000000;stroke-width:0.5;stroke-linecap:butt;stroke-linejoin:miter;stroke-opacity:1;stroke-dasharray:none"
     d="m 148.21214,17.119368 -4.04317,-0.0041 m 0,0 -4.11757,0.0041 -0.25632,0.868165"
     id="path25" />
  <path
     style="fill:none;stroke:#000000;stroke-width:0.5;stroke-linecap:butt;stroke-linejoin:miter;stroke-opacity:1;stroke-dasharray:none"
     d="m 137.4345,34.999414 h -1.9513 m 0,0 h -0.8847 l 0.38861,-1.265039"
     id="path26" />
  <path
     style="fill:none;stroke:#000000;stroke-width:0.5;stroke-linecap:butt;stroke-linejoin:miter;stroke-opacity:1;stroke-dasharray:none"
     d="m 143.45377,21.927343 -0.68626,2.248959 m 0,0 -0.18603,0.599447 h 2.60036 0.15709 l 0.22324,-0.02481 0.23978,-0.05374 0.22325,-0.07855 0.20257,-0.10335 0.17363,-0.107487 0.1571,-0.124023 0.16949,-0.16123 0.12403,-0.14056 0.11575,-0.148828 0.10749,-0.169499 0.11576,-0.214974 0.0785,-0.219108 0.0703,-0.248047 0.0331,-0.190169 0.0248,-0.161231 0.008,-0.152962 -0.008,-0.194303 -0.0165,-0.09922 -0.0248,-0.124023 -0.0455,-0.128157 -0.062,-0.111621 -0.0662,-0.08268 -0.0744,-0.08682 -0.0909,-0.07028 -0.11993,-0.07028 -0.13229,-0.04961 -0.14469,-0.03721 -0.14883,-0.0248 -0.17363,-0.0124 -0.26045,-2e-6 h -2.42259 l -0.23151,0.79375"
     id="path27" />
  <path
     style="fill:none;stroke:#000000;stroke-width:0.5;stroke-linecap:butt;stroke-linejoin:miter;stroke-opacity:1;stroke-dasharray:none"
     d="m 94.292689,23.596558 -0.280633,0.52034 m 0,0 -0.128623,0.298173 -0.140317,0.327405 -0.09939,0.251401 -0.15201,0.438489 -0.146163,0.450182 -0.08185,0.239707 -0.09355,0.356638 -0.07015,0.26894 -0.0877,0.40341 -0.05262,0.263094 -0.04677,0.239707 -0.02923,0.204628 -0.02339,0.216321 -0.0117,0.146163 -0.01753,0.140317 -0.0117,0.198782 0.0058,0.2514 4.9e-5,0.198782 0.01754,0.192935 0.03508,0.216321 0.04677,0.222168 0.05262,0.198782 0.05846,0.163702 0.09355,0.204629 0.0877,0.152009 0.111081,0.13447 0.116931,0.128623 0.128623,0.111084 0.146163,0.09939 0.163703,0.09355 0.163702,0.06431 0.181242,0.05262 0.210475,0.04092 0.222168,0.01754 0.2514,1e-6 0.280633,-0.02923 0.263094,-0.04678 0.298172,-0.08769 0.251401,-0.08185 0.233861,-0.116934 0.228014,-0.128624 0.239707,-0.169549 0.204629,-0.157856 0.175395,-0.157856 0.251401,-0.263093 0.245553,-0.292326 0.222168,-0.304019 0.228015,-0.356638 0.187088,-0.333252 0.204628,-0.40341 0.163703,-0.374177 0.157856,-0.380024 0.210475,-0.572959 0.146163,-0.473568 0.157856,-0.567113 0.128623,-0.508647 0.09939,-0.450182 0.07601,-0.426796 0.04092,-0.397564 0.02339,-0.473568 -0.0058,-0.292326 -0.03513,-0.309865 -0.05846,-0.309866 -0.09355,-0.315712 -0.128621,-0.245554 -0.122777,-0.210475 -0.204628,-0.239707 -0.222168,-0.175396 -0.198782,-0.105237 -0.187088,-0.07601 -0.239708,-0.07015 -0.23386,-0.03508 -0.251401,-0.0058 -0.245554,0.01164 -0.339098,0.06432 -0.344945,0.08769 -0.233861,0.09355 -0.298172,0.146161 -0.198782,0.128624 -0.26894,0.192935 -0.304019,0.257247 -0.198782,0.187088 -0.274786,0.309866 -0.216321,0.286479 -0.169549,0.239708 -0.105238,0.169549 -0.128623,0.204628 -0.204628,0.380024 -0.204629,0.374177"
     id="path28" />
  <path
     style="fill:none;stroke:#000000;stroke-width:0.5;stroke-linecap:butt;stroke-linejoin:miter;stroke-opacity:1;stroke-dasharray:none"
     d="m 124.77645,24.473536 -0.0109,0.0335 m 0,0 -0.0807,0.194299 -0.13431,0.33693 -0.10749,0.305924 -0.0785,0.227377 -0.0807,0.256315 -0.0889,0.291455 -0.0578,0.217041 -0.0434,0.16123 -0.0662,0.270785 -0.0661,0.272851 -0.0372,0.181902 -0.0352,0.167431 -0.0289,0.155029 -0.0248,0.14056 -0.0186,0.124024 -0.0145,0.119889 -0.0186,0.14056 -0.0103,0.155029 -0.0104,0.130225 -0.008,0.146761 -0.004,0.150895 -3.6e-4,0.109554 -0.002,0.101286 0.008,0.136426 0.0105,0.144694 0.0145,0.165364 0.0331,0.19017 0.0413,0.186035 0.0496,0.1757 0.062,0.167431 0.0662,0.142627 0.0827,0.148828 0.0744,0.107487 0.1054,0.126091 0.13022,0.119889 0.1385,0.109554 0.15503,0.09509 0.19843,0.09508 0.17777,0.05374 0.16536,0.03514 0.15917,0.02688 0.15089,0.0083 0.12403,0.0041 0.16536,-0.0041 0.20671,-0.01864 0.2129,-0.03514 0.20878,-0.04754 0.22737,-0.06822 0.20671,-0.07854 0.22324,-0.105424 0.1633,-0.08682 0.22117,-0.14469 0.22531,-0.167432 0.23358,-0.204639 0.17777,-0.177767 0.13849,-0.152962 0.17157,-0.204638 0.15503,-0.21084 0.1881,-0.268718 0.18603,-0.305924 0.19431,-0.357601 0.13435,-0.270785 0.14056,-0.307991 0.10542,-0.243913 0.0992,-0.258382 0.13852,-0.365869 0.15916,-0.475423 0.10335,-0.345199 0.0765,-0.279053 0.0889,-0.341064 0.093,-0.392741 0.0641,-0.287321 0.033,-0.1757 0.0331,-0.200504 0.0289,-0.192237 0.0228,-0.225309 0.0124,-0.130225 0.0103,-0.132291 0.004,-0.146761 0.002,-0.161231 -0.002,-0.171566 -0.006,-0.148828 -0.0145,-0.130224 -0.0165,-0.134359 -0.0187,-0.109554 -0.0165,-0.09095 -0.0269,-0.126091 -0.0392,-0.14056 -0.0455,-0.132292 -0.0414,-0.09922 -0.0454,-0.103351 -0.0558,-0.101286 -0.0641,-0.101286 -0.0641,-0.09715 -0.0703,-0.09095 -0.0827,-0.08889 -0.10538,-0.09715 -0.12609,-0.09508 -0.11782,-0.07648 -0.12609,-0.06201 -0.13849,-0.05788 -0.10749,-0.03308 -0.12402,-0.03307 -0.1571,-0.02687 -0.16536,-0.01654 -0.16537,-0.0062 -0.15503,0.0041 -0.16743,0.01657 -0.13643,0.01861 -0.16123,0.031 -0.1819,0.04548 -0.19223,0.05787 -0.17777,0.07235 -0.15503,0.06822 -0.13436,0.07027 -0.13436,0.07649 -0.14469,0.09095 -0.17157,0.126087 -0.17363,0.130225 -0.1633,0.142627 -0.14262,0.138493 -0.13643,0.142627 -0.13023,0.144694 -0.13022,0.157096 -0.13849,0.181901 -0.10956,0.152962 -0.13849,0.204639 -0.15089,0.24598 -0.11576,0.200504 -0.10955,0.208773 -0.10336,0.204639 -0.0909,0.194303 -0.0579,0.130225 -0.0806,0.183968"
     id="path29" />
  <path
     style="fill:none;stroke:#000000;stroke-width:0.5;stroke-linecap:butt;stroke-linejoin:miter;stroke-opacity:1;stroke-dasharray:none"
     d="m 89.660676,22.832715 0.05374,-0.101286 m 0,0 -0.16536,0.332796 -0.136426,0.287321 -0.09922,0.227377 -0.08061,0.183968 -0.08889,0.214974 -0.09922,0.245979 -0.07234,0.192237 -0.06202,0.167431 -0.06614,0.186036 -0.06821,0.194303 -0.08889,0.262516 -0.08268,0.262516 -0.06201,0.208773 -0.06821,0.250114 -0.05581,0.200505 -0.06408,0.256315 -0.06822,0.283187 -0.05994,0.260449 -0.04134,0.181901 -0.04134,0.219108 -0.03101,0.159163 -0.03721,0.204639 -0.0248,0.163298 -0.02067,0.12609 -0.02274,0.202572 -0.01654,0.16123 -0.0186,0.183968 -0.02067,0.270785 -0.01447,0.239778 -0.0062,0.167432 -0.0041,0.198438 -3.4e-5,0.169498 0.0041,0.186035 0.0083,0.181901 0.01034,0.196371 0.02067,0.235644 0.02894,0.239779 0.03307,0.231511 0.03927,0.214973 0.04134,0.202572 0.05582,0.225309 0.05994,0.214974 0.06615,0.21084 0.07648,0.21084 0.08681,0.212907 0.08475,0.183968 0.10749,0.214974 0.117822,0.214974 0.144694,0.23151 0.169499,0.239779 0.155029,0.202572 0.202572,0.23151 0.192236,0.198437 0.221175,0.202572 0.250114,0.204639 0.264584,0.183968 0.155029,0.09715 0.254248,0.14883 0.283187,0.136425 0.357601,0.144694 0.307991,0.103353 0.276986,0.07235 0.334863,0.07855 0.38654,0.05787 0.361735,0.03928 0.380339,0.02687 0.353466,0.0021 0.270785,-0.0021 0.258382,-0.01034 0.30179,-0.0186 0.272852,-0.02481 0.28112,-0.0372 0.328662,-0.05581 0.326595,-0.06408 0.279053,-0.06615 0.289388,-0.07854 0.237711,-0.07649 0.243913,-0.08061 0.353467,-0.136427 0.318327,-0.138493 0.258382,-0.124023 0.262516,-0.136426 0.248047,-0.138493 0.183968,-0.109554 0.202572,-0.128158 0.212906,-0.144694 0.183969,-0.130224 0.227376,-0.171566 0.237711,-0.188102 0.229444,-0.196371 0.208768,-0.186035 0.22945,-0.212907 0.22324,-0.227376 0.1819,-0.188102 0.17363,-0.192236 0.18811,-0.214974 0.2067,-0.252181 0.19224,-0.241846 0.1757,-0.237712 0.1695,-0.239778"
     id="path30" />
  <path
     style="fill:none;stroke:#000000;stroke-width:0.5;stroke-linecap:butt;stroke-linejoin:miter;stroke-opacity:1;stroke-dasharray:none"
     d="m 101.77983,31.125747 -0.10748,0.148828 m 0,0 0.13022,-0.183966 0.16743,-0.248047 0.0847,-0.134359 0.0807,-0.12609 0.0703,-0.115756 0.13224,-0.217041 0.13022,-0.227376 0.13436,-0.248047 0.0951,-0.1757 0.11574,-0.229443 0.16743,-0.3514 0.1633,-0.349332 0.16123,-0.382406 0.0847,-0.208773 0.12407,-0.330729 0.1447,-0.392741 0.1571,-0.465088 0.091,-0.293522 0.0971,-0.361735 0.11575,-0.446484 0.11576,-0.487826 0.0847,-0.423747 0.0724,-0.415478 0.0517,-0.374137 0.0144,-0.142627 0.0311,-0.347266 0.0268,-0.370003 0.0104,-0.343132 -5e-5,-0.343131 -0.008,-0.24598 -0.0168,-0.262516 -0.0331,-0.338998 -0.0496,-0.355534 -0.0558,-0.295589 -0.0661,-0.291455 -0.0641,-0.23151 -0.0682,-0.21084 -0.0848,-0.229444 -0.0889,-0.223242 -0.11365,-0.241845"
     id="path31" />
  <path
     style="fill:none;stroke:#000000;stroke-width:0.5;stroke-linecap:butt;stroke-linejoin:miter;stroke-opacity:1;stroke-dasharray:none"
     d="m 103.87789,19.612239 0.06,0.11989 m 0,0 -0.0869,-0.1757 -0.10125,-0.190169 -0.0827,-0.14056 -0.0909,-0.144694 -0.0786,-0.115755 -0.1116,-0.157097 -0.10129,-0.132291 -0.0847,-0.10542 -0.1034,-0.11989 -0.12609,-0.134358 -0.13643,-0.138493 -0.11369,-0.107487 -0.11988,-0.103353 -0.11163,-0.09508 -0.11162,-0.08682 -0.19017,-0.13436 -0.25218,-0.165364 -0.19017,-0.10542 -0.17776,-0.09095 -0.1757,-0.08682 -0.1819,-0.07441 -0.14676,-0.05581 -0.16744,-0.05581 -0.20877,-0.06615 -0.19637,-0.05374 -0.18603,-0.04341 -0.25632,-0.04961 -0.250114,-0.03927 -0.30179,-0.03721 -0.212907,-0.01654 -0.233578,-0.01653 -0.291455,-0.0062 -0.186035,-4e-6 -0.31626,0.0062 -0.357601,0.02067 -0.276985,0.02481 -0.326595,0.04134 -0.279053,0.04547 -0.30179,0.05788 -0.355534,0.08268 -0.312126,0.08682 -0.357601,0.113687 -0.297656,0.113688 -0.345199,0.14056 -0.279052,0.130224 -0.310059,0.15503 -0.357601,0.198437 -0.28112,0.167432 -0.355534,0.243913 -0.403076,0.297656 -0.390674,0.318327 -0.312125,0.274918 -0.24598,0.229444 -0.264583,0.26665 -0.241846,0.258382 -0.204639,0.233578 -0.241845,0.295589 -0.239779,0.307991 -0.237712,0.324528 -0.225309,0.332797 -0.190169,0.30179 -0.219108,0.365869 -0.165365,0.299723 -0.177767,0.33073"
     id="path32" />
  <path
     style="fill:none;stroke:#000000;stroke-width:0.5;stroke-linecap:butt;stroke-linejoin:miter;stroke-opacity:1;stroke-dasharray:none"
     d="m 120.52391,22.952604 0.0455,-0.08888 m 0,0 -0.11371,0.235641 -0.11576,0.241846 -0.10955,0.243913 -0.13023,0.307991 -0.0971,0.243913 -0.0807,0.200505 -0.093,0.252181 -0.0992,0.279052 -0.10129,0.305925 -0.0744,0.229443 -0.0786,0.252181 -0.064,0.229443 -0.0703,0.262517 -0.0703,0.272851 -0.0517,0.212907 -0.0661,0.276986 -0.0538,0.270784 -0.0496,0.239779 -0.0475,0.287321 -0.0558,0.3514 -0.0434,0.403076 -0.0352,0.42168 -0.0124,0.264583 -0.004,0.285254 -1.1e-4,0.26665 0.0103,0.289388 0.0186,0.279053 0.0248,0.24598 0.0434,0.322461 0.0517,0.283187 0.0558,0.254248 0.0683,0.26665 0.0661,0.21084 0.0579,0.167431 0.0847,0.223243 0.0951,0.223242 0.10129,0.208773 0.10129,0.192236 0.16537,0.274919 0.13229,0.198437 0.14056,0.188102 0.13642,0.171566 0.1447,0.163298 0.14262,0.150895 0.19844,0.188102 0.19844,0.173633 0.22324,0.167431 0.1881,0.130225 0.25839,0.159163 0.23977,0.130225 0.1633,0.07855 0.23151,0.09922 0.29559,0.109551 0.31833,0.09508 0.3762,0.08682 0.44235,0.07442 0.41548,0.0434 0.27905,0.01654 0.39274,0.0062 0.53744,-0.0083 0.42375,-0.03097 c 0.004,0.0014 0.008,0.0028 0.0124,0.0041 l 0.3638,-0.04544 0.32246,-0.04755 0.42995,-0.08888 0.44442,-0.111621 0.42581,-0.130225 0.44235,-0.16123 0.36794,-0.159164 0.42788,-0.206705 0.50643,-0.285254 0.37413,-0.241846 0.34314,-0.243913 0.28525,-0.221175 0.31006,-0.258382 0.30386,-0.272852 0.25011,-0.239778 0.22944,-0.235645 0.24185,-0.262516 0.26045,-0.30179 0.22737,-0.279053 0.24185,-0.320394 0.19637,-0.270785 0.24185,-0.361735 0.25838,-0.411344 0.16743,-0.289388 0.20671,-0.37207 0.16329,-0.320394 0.16743,-0.338998 0.17984,-0.405143 0.1571,-0.363802 0.16329,-0.413411 0.17364,-0.467155 0.15296,-0.448552 0.13849,-0.458886 0.0744,-0.266651 0.093,-0.365869 0.14059,-0.584977 0.093,-0.460954 0.0868,-0.545703 0.0455,-0.357601 0.0289,-0.359668 0.0269,-0.361735 0.008,-0.320394 -0.002,-0.376204 -0.0101,-0.31626 -0.0165,-0.202572 -0.0269,-0.276985 -0.0372,-0.287321 -0.0434,-0.243913 -0.0476,-0.237712 -0.0537,-0.223242 -0.0662,-0.229443 -0.0744,-0.225309 -0.0641,-0.181901 -0.0888,-0.21084 -0.11166,-0.243913 -0.11163,-0.217041 -0.12195,-0.206706 -0.13229,-0.204638 -0.12609,-0.181902 -0.1509,-0.188102 -0.18397,-0.219108 -0.19637,-0.202571 -0.14262,-0.134359 -0.20258,-0.177767 -0.2191,-0.167432 -0.24392,-0.171565 -0.26665,-0.15503 -0.27492,-0.138493 -0.26458,-0.117822 -0.22324,-0.08475 -0.22945,-0.07648 -0.27285,-0.07648 -0.29145,-0.06821 -0.26459,-0.04961 -0.25631,-0.03721 -0.27078,-0.02894 -0.32867,-0.02067 -0.36173,-0.01034 -0.35967,0.0021 -0.31626,0.01237 -0.33486,0.02688 -0.40721,0.04547 -0.48576,0.08268 -0.59531,0.136429 -0.3266,0.09715"
     id="path33" />
  <path
     style="fill:none;stroke:#000000;stroke-width:0.5;stroke-linecap:butt;stroke-linejoin:miter;stroke-opacity:1;stroke-dasharray:none"
     d="m 126.8429,17.092496 0.14676,-0.03927 m 0,0 -0.20877,0.05994 -0.21911,0.07442 -0.14469,0.05167 -0.28525,0.109556 -0.21498,0.09302 -0.22117,0.101283 -0.26252,0.134359 -0.28319,0.155029 -0.26458,0.152962 -0.31006,0.200505 -0.25631,0.1757 -0.23771,0.173633 -0.24392,0.188102 -0.26045,0.219108 -0.33899,0.307992 -0.25839,0.241845 -0.24598,0.24598 -0.20257,0.219108 -0.22117,0.250114 -0.20878,0.252181 -0.19223,0.243913 -0.19637,0.262516 -0.16537,0.233578 -0.17363,0.260449 -0.18604,0.293522 -0.2129,0.353467 -0.1695,0.30179"
     id="path34" />
  <path
     style="fill:none;stroke:#000000;stroke-width:0.5;stroke-linecap:butt;stroke-linejoin:miter;stroke-opacity:1;stroke-dasharray:none"
     d="m 120.80709,22.406901 0.0537,-0.08682 m 0,0 -0.0702,0.109558 -0.10752,0.206705 -0.12609,0.250114"
     id="path35" />
</svg>
